<svg version="1.2" xmlns="http://www.w3.org/2000/svg" viewBox="0 0 1200 900" width="1920" height="1080">
	<title>892-ai</title>
	<defs>
		<linearGradient id="g1" x2="1" gradientUnits="userSpaceOnUse" gradientTransform="matrix(-305.04,237.972,-116.115,-148.84,508.854,199.528)">
			<stop offset="0" stop-color="#183372"/>
			<stop offset="1" stop-color="#020230"/>
		</linearGradient>
		<linearGradient id="g2" x2="1" gradientUnits="userSpaceOnUse" gradientTransform="matrix(-574.326,-177.666,246.011,-795.258,1286.445,1098.944)">
			<stop offset="0" stop-color="#183372"/>
			<stop offset="1" stop-color="#020230"/>
		</linearGradient>
		<linearGradient id="g3" x2="1" gradientUnits="userSpaceOnUse" gradientTransform="matrix(528.62,0,0,229.725,129.454,0)">
			<stop offset="0" stop-color="#183372"/>
			<stop offset="1" stop-color="#020230"/>
		</linearGradient>
		<linearGradient id="g4" x2="1" gradientUnits="userSpaceOnUse" gradientTransform="matrix(449.063,0,0,378.711,-22.546,228.957)">
			<stop offset="0" stop-color="#183372"/>
			<stop offset="1" stop-color="#020230"/>
		</linearGradient>
		<linearGradient id="g5" x2="1" gradientUnits="userSpaceOnUse" gradientTransform="matrix(-118.934,277.69,-103.915,-44.507,1430.939,665.742)">
			<stop offset="0" stop-color="#183372"/>
			<stop offset="1" stop-color="#020230"/>
		</linearGradient>
		<linearGradient id="g6" x2="1" gradientUnits="userSpaceOnUse" gradientTransform="matrix(372.858,0,0,287.125,425.517,299.016)">
			<stop offset="0" stop-color="#183372"/>
			<stop offset="1" stop-color="#020230"/>
		</linearGradient>
		<linearGradient id="g7" x2="1" gradientUnits="userSpaceOnUse" gradientTransform="matrix(528.202,0,0,600.984,62.535,299.016)">
			<stop offset="0" stop-color="#183372"/>
			<stop offset="1" stop-color="#020230"/>
		</linearGradient>
		<linearGradient id="g8" x2="1" gradientUnits="userSpaceOnUse" gradientTransform="matrix(528.202,0,0,292.332,238.535,607.668)">
			<stop offset="0" stop-color="#183372"/>
			<stop offset="1" stop-color="#020230"/>
		</linearGradient>
		<linearGradient id="g9" x2="1" gradientUnits="userSpaceOnUse" gradientTransform="matrix(-422.351,-315.086,262.847,-352.329,1005.676,822.261)">
			<stop offset="0" stop-color="#183372"/>
			<stop offset="1" stop-color="#020230"/>
		</linearGradient>
		<linearGradient id="g10" x2="1" gradientUnits="userSpaceOnUse" gradientTransform="matrix(329.835,0,0,228.961,428.071,0)">
			<stop offset="0" stop-color="#183372"/>
			<stop offset="1" stop-color="#020230"/>
		</linearGradient>
		<linearGradient id="g11" x2="1" gradientUnits="userSpaceOnUse" gradientTransform="matrix(-362.571,207.638,-84.502,-147.554,1283.2,97.603)">
			<stop offset="0" stop-color="#183372"/>
			<stop offset="1" stop-color="#020230"/>
		</linearGradient>
		<linearGradient id="g12" x2="1" gradientUnits="userSpaceOnUse" gradientTransform="matrix(416.308,-482.718,965.666,832.814,-184.896,897.767)">
			<stop offset="0" stop-color="#183372"/>
			<stop offset="1" stop-color="#020230"/>
		</linearGradient>
		<clipPath clipPathUnits="userSpaceOnUse" id="cp1">
			<path d="m1087.41 828.45h-974.82c-29.41 0-53.26-23.84-53.26-53.26v-653.37c0-29.41 23.85-53.26 53.26-53.26h974.82c29.41 0 53.26 23.85 53.26 53.26v653.37c0 29.42-23.85 53.26-53.26 53.26z"/>
		</clipPath>
		<linearGradient id="g13" x2="1" gradientUnits="userSpaceOnUse" gradientTransform="matrix(268.281,-209.295,103.611,132.811,695.772,667.995)">
			<stop offset="0" stop-color="#183372"/>
			<stop offset="1" stop-color="#020230"/>
		</linearGradient>
		<linearGradient id="g14" x2="1" gradientUnits="userSpaceOnUse" gradientTransform="matrix(508.422,157.279,-205.364,663.862,-19.687,-100.488)">
			<stop offset="0" stop-color="#183372"/>
			<stop offset="1" stop-color="#020230"/>
		</linearGradient>
		<linearGradient id="g15" x2="1" gradientUnits="userSpaceOnUse" gradientTransform="matrix(-476.345,0,0,-193.963,1024.014,828.454)">
			<stop offset="0" stop-color="#183372"/>
			<stop offset="1" stop-color="#020230"/>
		</linearGradient>
		<linearGradient id="g16" x2="1" gradientUnits="userSpaceOnUse" gradientTransform="matrix(-404.656,0,0,-319.756,1160.983,635.14)">
			<stop offset="0" stop-color="#183372"/>
			<stop offset="1" stop-color="#020230"/>
		</linearGradient>
		<linearGradient id="g17" x2="1" gradientUnits="userSpaceOnUse" gradientTransform="matrix(101.652,-237.339,90.564,38.788,-90.951,278.381)">
			<stop offset="0" stop-color="#183372"/>
			<stop offset="1" stop-color="#020230"/>
		</linearGradient>
		<linearGradient id="g18" x2="1" gradientUnits="userSpaceOnUse" gradientTransform="matrix(-335.986,0,0,-242.427,757.228,575.987)">
			<stop offset="0" stop-color="#183372"/>
			<stop offset="1" stop-color="#020230"/>
		</linearGradient>
		<linearGradient id="g19" x2="1" gradientUnits="userSpaceOnUse" gradientTransform="matrix(-475.968,0,0,-507.426,1084.315,575.987)">
			<stop offset="0" stop-color="#183372"/>
			<stop offset="1" stop-color="#020230"/>
		</linearGradient>
		<linearGradient id="g20" x2="1" gradientUnits="userSpaceOnUse" gradientTransform="matrix(-475.968,0,0,-246.823,925.719,315.384)">
			<stop offset="0" stop-color="#183372"/>
			<stop offset="1" stop-color="#020230"/>
		</linearGradient>
		<linearGradient id="g21" x2="1" gradientUnits="userSpaceOnUse" gradientTransform="matrix(368.75,275.098,-226.495,303.601,220.648,137.43)">
			<stop offset="0" stop-color="#183372"/>
			<stop offset="1" stop-color="#020230"/>
		</linearGradient>
		<linearGradient id="g22" x2="1" gradientUnits="userSpaceOnUse" gradientTransform="matrix(-297.218,0,0,-193.318,754.927,828.454)">
			<stop offset="0" stop-color="#183372"/>
			<stop offset="1" stop-color="#020230"/>
		</linearGradient>
		<linearGradient id="g23" x2="1" gradientUnits="userSpaceOnUse" gradientTransform="matrix(321.799,-184.288,76.145,132.963,-8.049,753.109)">
			<stop offset="0" stop-color="#183372"/>
			<stop offset="1" stop-color="#020230"/>
		</linearGradient>
		<linearGradient id="g24" x2="1" gradientUnits="userSpaceOnUse" gradientTransform="matrix(-290.822,0,0,-566.579,1277.031,640.14)">
			<stop offset="0" stop-color="#183372"/>
			<stop offset="1" stop-color="#020230"/>
		</linearGradient>
		<linearGradient id="g25" x2="1" gradientUnits="userSpaceOnUse" gradientTransform="matrix(-363.468,421.449,-820.766,-707.849,1290.277,60.319)">
			<stop offset="0" stop-color="#183372"/>
			<stop offset="1" stop-color="#020230"/>
		</linearGradient>
		<radialGradient id="g26" cx="0" cy="0" r="1" gradientUnits="userSpaceOnUse" gradientTransform="matrix(243.932,0,0,243.932,1021.379,440.808)">
			<stop offset="0" stop-color="#01c8ef"/>
			<stop offset=".446" stop-color="#1177b8"/>
			<stop offset="1" stop-color="#112564"/>
		</radialGradient>
		<linearGradient id="g27" x2="1" gradientUnits="userSpaceOnUse" gradientTransform="matrix(381.246,74.462,-58.538,299.718,644.566,206.278)">
			<stop offset="0" stop-color="#01c8ef"/>
			<stop offset=".515" stop-color="#1177b8"/>
			<stop offset="1" stop-color="#172f78"/>
		</linearGradient>
		<linearGradient id="g28" x2="1" gradientUnits="userSpaceOnUse" gradientTransform="matrix(198.292,159.203,-107.377,133.741,659.427,229.578)">
			<stop offset="0" stop-color="#01c8ef"/>
			<stop offset=".446" stop-color="#1177b8"/>
			<stop offset="1" stop-color="#172f78"/>
		</linearGradient>
		<linearGradient id="g29" x2="1" gradientUnits="userSpaceOnUse" gradientTransform="matrix(-166.394,-59.203,91.18,-256.269,750.267,603.144)">
			<stop offset="0" stop-color="#01c8ef"/>
			<stop offset=".095" stop-color="#1177b8"/>
			<stop offset="1" stop-color="#172f78"/>
		</linearGradient>
		<linearGradient id="g30" x2="1" gradientUnits="userSpaceOnUse" gradientTransform="matrix(-485.288,73.556,-188.039,-1240.596,1160.505,537.624)">
			<stop offset="0" stop-color="#01c8ef"/>
			<stop offset=".446" stop-color="#1177b8"/>
			<stop offset="1" stop-color="#172f78"/>
		</linearGradient>
		<linearGradient id="g31" x2="1" gradientUnits="userSpaceOnUse" gradientTransform="matrix(-201.157,-98.904,95.133,-193.488,851.569,653.206)">
			<stop offset="0" stop-color="#01c8ef"/>
			<stop offset=".189" stop-color="#1177b8"/>
			<stop offset="1" stop-color="#172f78"/>
		</linearGradient>
		<linearGradient id="g32" x2="1" gradientUnits="userSpaceOnUse" gradientTransform="matrix(365.946,71.474,-35.482,181.668,644.925,212.192)">
			<stop offset="0" stop-color="#01c8ef"/>
			<stop offset=".515" stop-color="#1177b8"/>
			<stop offset="1" stop-color="#172f78"/>
		</linearGradient>
		<linearGradient id="g33" x2="1" gradientUnits="userSpaceOnUse" gradientTransform="matrix(.059,.012,-0.011,.054,663.77,279.101)">
			<stop offset="0" stop-color="#01c8ef"/>
			<stop offset=".515" stop-color="#1177b8"/>
			<stop offset="1" stop-color="#172f78"/>
		</linearGradient>
		<linearGradient id="g34" x2="1" gradientUnits="userSpaceOnUse" gradientTransform="matrix(.059,.012,-0.011,.054,663.77,279.101)">
			<stop offset="0" stop-color="#01c8ef"/>
			<stop offset=".515" stop-color="#1177b8"/>
			<stop offset="1" stop-color="#172f78"/>
		</linearGradient>
		<radialGradient id="g35" cx="0" cy="0" r="1" gradientUnits="userSpaceOnUse" gradientTransform="matrix(222.989,0,0,222.989,929.56,429.904)">
			<stop offset="0" stop-color="#01c8ef"/>
			<stop offset=".446" stop-color="#1177b8"/>
			<stop offset="1" stop-color="#112564"/>
		</radialGradient>
		<linearGradient id="g36" x2="1" gradientUnits="userSpaceOnUse" gradientTransform="matrix(175.415,46.258,-94.03,356.569,651.768,160.084)">
			<stop offset="0" stop-color="#01c8ef"/>
			<stop offset=".446" stop-color="#1177b8"/>
			<stop offset="1" stop-color="#112564"/>
		</linearGradient>
		<radialGradient id="g37" cx="0" cy="0" r="1" gradientUnits="userSpaceOnUse" gradientTransform="matrix(39.51,0,0,39.51,845.276,512.817)">
			<stop offset="0" stop-color="#01c8ef"/>
			<stop offset="1" stop-color="#172f78"/>
		</radialGradient>
		<radialGradient id="g38" cx="0" cy="0" r="1" gradientUnits="userSpaceOnUse" gradientTransform="matrix(32.953,19.025,-19.025,32.953,857.792,518.282)">
			<stop offset="0" stop-color="#01c8ef"/>
			<stop offset="1" stop-color="#172f78"/>
		</radialGradient>
		<radialGradient id="g39" cx="0" cy="0" r="1" gradientUnits="userSpaceOnUse" gradientTransform="matrix(102.611,59.242,-59.242,102.611,769.628,461.979)">
			<stop offset="0" stop-color="#01c8ef"/>
			<stop offset="1" stop-color="#172f78"/>
		</radialGradient>
		<radialGradient id="g40" cx="0" cy="0" r="1" gradientUnits="userSpaceOnUse" gradientTransform="matrix(35.873,0,0,35.873,812.872,517.454)">
			<stop offset="0" stop-color="#01c8ef"/>
			<stop offset="1" stop-color="#172f78"/>
		</radialGradient>
		<linearGradient id="g41" x2="1" gradientUnits="userSpaceOnUse" gradientTransform="matrix(188.288,0,0,203.393,452.098,205.464)">
			<stop offset="0" stop-color="#b6246e"/>
			<stop offset="1" stop-color="#f9636b"/>
		</linearGradient>
		<linearGradient id="g42" x2="1" gradientUnits="userSpaceOnUse" gradientTransform="matrix(105.741,0,0,60.64,489.038,327.417)">
			<stop offset="0" stop-color="#f9636b"/>
			<stop offset=".325" stop-color="#b7256e"/>
			<stop offset="1" stop-color="#b6246e"/>
		</linearGradient>
		<linearGradient id="g43" x2="1" gradientUnits="userSpaceOnUse" gradientTransform="matrix(-208.973,11.16,-6.605,-123.686,617.768,463.194)">
			<stop offset="0" stop-color="#b6246e"/>
			<stop offset="1" stop-color="#f9636b"/>
		</linearGradient>
		<linearGradient id="g44" x2="1" gradientUnits="userSpaceOnUse" gradientTransform="matrix(72.598,0,0,41.915,504.722,515.897)">
			<stop offset="0" stop-color="#01c8ef"/>
			<stop offset="1" stop-color="#172f78"/>
		</linearGradient>
		<radialGradient id="g45" cx="0" cy="0" r="1" gradientUnits="userSpaceOnUse" gradientTransform="matrix(162.018,0,0,162.018,491.852,496.166)">
			<stop offset="0" stop-color="#01c8ef"/>
			<stop offset="1" stop-color="#172f78"/>
		</radialGradient>
	</defs>
	<style>
		tspan { white-space:pre } 
		.s0 { fill: #020230 } 
		.s1 { fill: url(#g1) } 
		.s2 { fill: url(#g2) } 
		.s3 { fill: url(#g3) } 
		.s4 { fill: url(#g4) } 
		.s5 { fill: url(#g5) } 
		.s6 { fill: url(#g6) } 
		.s7 { fill: url(#g7) } 
		.s8 { fill: url(#g8) } 
		.s9 { fill: url(#g9) } 
		.s10 { fill: url(#g10) } 
		.s11 { fill: url(#g11) } 
		.s12 { fill: #112564 } 
		.s13 { fill: url(#g12) } 
		.s14 { fill: url(#g13) } 
		.s15 { fill: url(#g14) } 
		.s16 { fill: url(#g15) } 
		.s17 { fill: url(#g16) } 
		.s18 { fill: url(#g17) } 
		.s19 { fill: url(#g18) } 
		.s20 { fill: url(#g19) } 
		.s21 { fill: url(#g20) } 
		.s22 { fill: url(#g21) } 
		.s23 { fill: url(#g22) } 
		.s24 { fill: url(#g23) } 
		.s25 { fill: url(#g24) } 
		.s26 { fill: url(#g25) } 
		.s27 { opacity: .8;fill: #172f78 } 
		.s28 { opacity: .4;fill: #172f78 } 
		.s29 { opacity: .6;fill: #172f78 } 
		.s30 { fill: #172f78 } 
		.s31 { fill: #03a7d3 } 
		.s32 { fill: #380031 } 
		.s33 { fill: url(#g26) } 
		.s34 { fill: url(#g27) } 
		.s35 { fill: url(#g28) } 
		.s36 { fill: url(#g29) } 
		.s37 { fill: url(#g30) } 
		.s38 { fill: url(#g31) } 
		.s39 { fill: url(#g32) } 
		.s40 { fill: #ffffff } 
		.s41 { fill: url(#g33) } 
		.s42 { fill: url(#g34) } 
		.s43 { fill: #11203c } 
		.s44 { fill: #121a46 } 
		.s45 { fill: url(#g35) } 
		.s46 { fill: url(#g36) } 
		.s47 { opacity: .4;fill: #07aadb } 
		.s48 { opacity: .5;fill: #e6f4f6 } 
		.s49 { opacity: .5;fill: #ffffff } 
		.s50 { fill: #07aadb } 
		.s51 { fill: url(#g37) } 
		.s52 { fill: url(#g38) } 
		.s53 { fill: url(#g39) } 
		.s54 { fill: url(#g40) } 
		.s55 { fill: url(#g41) } 
		.s56 { fill: url(#g42) } 
		.s57 { fill: url(#g43) } 
		.s58 { opacity: .5;fill: #380031 } 
		.s59 { fill: url(#g44) } 
		.s60 { fill: url(#g45) } 
	</style>
	<g id="_Artboards_">
	</g>
	<g id="321353356351 1">
		<path id="&lt;Path&gt;" class="s0" d="m1200 900h-1200v-900h1200z"/>
		<g id="&lt;Group&gt;" style="opacity: .3">
			<path id="&lt;Path&gt;" class="s1" d="m0 0v330.9l420.1-330.9z"/>
			<text id="" style="transform: matrix(1,0,0,1,0,0)" >
			</text>
			<path id="&lt;Path&gt;" class="s2" d="m951.4 357.2l-184.7 542.8h433.3v-354.4z"/>
			<path id="&lt;Path&gt;" class="s3" d="m480.1 0h-60l-290.6 229 821.9 128.2z"/>
			<path id="&lt;Path&gt;" class="s4" d="m129.5 229l109 378.7 340-308.7z"/>
			<path id="&lt;Path&gt;" class="s5" d="m668.4 586.1l98.3 313.9 184.7-542.8z"/>
			<path id="&lt;Path&gt;" class="s6" d="m578.5 299l89.9 287.1 283-228.9z"/>
			<path id="&lt;Path&gt;" class="s7" d="m578.5 299l-340 308.7 528.2 292.3z"/>
			<path id="&lt;Path&gt;" class="s8" d="m238.5 607.7l84.2 292.3h444z"/>
			<path id="&lt;Path&gt;" class="s9" d="m782.2 229l417.8 316.6v-545.6z"/>
			<path id="&lt;Path&gt;" class="s10" d="m480.1 0l302.1 229 27.7-229z"/>
			<path id="&lt;Path&gt;" class="s11" d="m809.9 0l-27.7 229 417.8-229z"/>
			<path id="&lt;Path&gt;" class="s12" d="m129.5 229l-129.5 101.9v297.7l322.7 271.4z"/>
			<path id="&lt;Path&gt;" class="s13" d="m0 628.6v271.4h322.7z"/>
		</g>
		<g id="&lt;Clip Group&gt;" clip-path="url(#cp1)">
			<g id="&lt;Group&gt;" style="opacity: .8">
				<path id="&lt;Path&gt;" class="s14" d="m1140.7 828.5v-279.5l-378.6 279.5z"/>
				<path id="&lt;Path&gt;" class="s15" d="m283.4 525.9l166.4-458.3h-390.5v299.2z"/>
				<path id="&lt;Path&gt;" class="s16" d="m708.1 828.5h54l261.9-193.4-740.6-108.2z"/>
				<path id="&lt;Path&gt;" class="s17" d="m1024 635.1l-98.3-319.7-306.3 260.6z"/>
				<path id="&lt;Path&gt;" class="s18" d="m538.3 333.6l-88.5-265-166.4 458.3z"/>
				<path id="&lt;Path&gt;" class="s19" d="m619.4 576l-81.1-242.4-254.9 193.3z"/>
				<path id="&lt;Path&gt;" class="s20" d="m619.4 576l306.3-260.6-475.9-246.8z"/>
				<path id="&lt;Path&gt;" class="s21" d="m925.7 315.4l-75.9-246.8h-400z"/>
				<path id="&lt;Path&gt;" class="s22" d="m435.8 635.1l-376.5-267.3v460.7z"/>
				<path id="&lt;Path&gt;" class="s23" d="m708.1 828.5l-272.3-193.4-24.9 193.4z"/>
				<path id="&lt;Path&gt;" class="s24" d="m410.9 828.5l24.9-193.4-376.5 193.4z"/>
				<path id="&lt;Path&gt;" class="s25" d="m1027 640.1l116.7-86.1v-251.3l-290.9-229.1z"/>
				<path id="&lt;Path&gt;" class="s26" d="m1140.7 297.7v-229.1h-290.9z"/>
			</g>
		</g>
		<path id="&lt;Path&gt;" class="s27" d="m625.2 575.9c0 3.3-2.6 6-5.9 6-3.3 0-6-2.7-6-6 0-3.3 2.7-6 6-6 3.3 0 5.9 2.7 5.9 6z"/>
		<path id="&lt;Path&gt;" class="s28" d="m438.3 634.6c0 2.4-1.9 4.3-4.3 4.3-2.4 0-4.3-1.9-4.3-4.3 0-2.3 1.9-4.3 4.3-4.3 2.4 0 4.3 2 4.3 4.3z"/>
		<path id="&lt;Path&gt;" class="s28" d="m442.3 634.6c0 4.6-3.7 8.3-8.3 8.3-4.6 0-8.3-3.7-8.3-8.3 0-4.5 3.7-8.2 8.3-8.2 4.6 0 8.3 3.7 8.3 8.2z"/>
		<path id="&lt;Path&gt;" class="s28" d="m1029.7 634.9c0 3.3-2.6 5.9-5.9 5.9-3.3 0-6-2.6-6-5.9 0-3.3 2.7-6 6-6 3.3 0 5.9 2.7 5.9 6z"/>
		<path id="&lt;Path&gt;" class="s28" d="m541.2 333.8c0 1.8-1.4 3.3-3.3 3.3-1.8 0-3.3-1.5-3.3-3.3 0-1.8 1.5-3.3 3.3-3.3 1.9 0 3.3 1.5 3.3 3.3z"/>
		<path id="&lt;Path&gt;" class="s29" d="m171.4 256.2c0 1.8-1.5 3.3-3.4 3.3-1.8 0-3.3-1.5-3.3-3.3 0-1.9 1.5-3.4 3.3-3.4 1.9 0 3.4 1.5 3.4 3.4z"/>
		<path id="&lt;Path&gt;" class="s29" d="m342.6 208.6c0 2.7-2.2 4.9-4.9 4.9-2.8 0-5-2.2-5-4.9 0-2.8 2.2-5 5-5 2.7 0 4.9 2.2 4.9 5z"/>
		<path id="&lt;Path&gt;" class="s27" d="m339.7 208.6c0 1.1-0.9 2-2 2-1.2 0-2.1-0.9-2.1-2 0-1.2 0.9-2.1 2.1-2.1 1.1 0 2 0.9 2 2.1z"/>
		<path id="&lt;Path&gt;" class="s28" d="m589.9 284.6c0 7.3-5.9 13.2-13.2 13.2-7.3 0-13.2-5.9-13.2-13.2 0-7.3 5.9-13.2 13.2-13.2 7.3 0 13.2 5.9 13.2 13.2z"/>
		<path id="&lt;Path&gt;" class="s27" d="m582.2 284.6c0 3-2.5 5.5-5.5 5.5-3.1 0-5.5-2.5-5.5-5.5 0-3 2.4-5.5 5.5-5.5 3 0 5.5 2.5 5.5 5.5z"/>
		<path id="&lt;Path&gt;" class="s28" d="m765.8 826.7l-0.7-0.9 258.3-191.4 0.7 0.9z"/>
		<path id="&lt;Path&gt;" class="s29" d="m906.9 306.5l-457.4-237.5 0.5-0.9 457.4 237.5z"/>
		<path id="&lt;Path&gt;" class="s30" d="m605.8 380.3l-29.9-96.4 0.9 0.2 244.1 34.2-0.2 1-243.3-34 29.4 94.7z"/>
		<path id="&lt;Path&gt;" class="s29" d="m704.7 826.7l-270.8-191.7-353.2 183.1-0.5-1 353.8-183.3 0.3 0.2 271 191.8z"/>
		<path id="&lt;Path&gt;" class="s29" d="m283.1 527.3l-224.1-159.1 0.6-0.9 224.1 159.1z"/>
		<g id="&lt;Group&gt;">
		</g>
		<g id="&lt;Group&gt;">
			<g id="&lt;Group&gt;">
				<g id="&lt;Group&gt;">
				</g>
				<g id="&lt;Group&gt;">
					<g id="&lt;Group&gt;">
					</g>
					<g id="&lt;Group&gt;">
					</g>
				</g>
			</g>
		</g>
		<g id="&lt;Group&gt;">
			<g id="&lt;Group&gt;">
			</g>
			<g id="&lt;Group&gt;">
			</g>
			<g id="&lt;Group&gt;">
			</g>
			<g id="&lt;Group&gt;">
			</g>
		</g>
		<g id="&lt;Group&gt;">
			<path id="&lt;Path&gt;" class="s30" d="m474.8 573.8l-15.7-15.7 0.8-0.8 15.7 15.7z"/>
			<path id="&lt;Path&gt;" class="s31" d="m483.6 582.6l-5.1-5.1 0.8-0.8 5.1 5.1z"/>
		</g>
		<g id="&lt;Group&gt;">
			<path id="&lt;Path&gt;" class="s31" d="m628.1 451.6l-15.8-15.8 0.8-0.8 15.8 15.8z"/>
			<path id="&lt;Path&gt;" class="s30" d="m636.2 459.7l-4.5-4.5 0.8-0.8 4.5 4.5z"/>
			<path id="&lt;Path&gt;" class="s30" d="m644.5 467.9l-4.5-4.5 0.8-0.8 4.5 4.5z"/>
		</g>
		<g id="&lt;Group&gt;">
			<path id="&lt;Path&gt;" class="s30" d="m628.4 216.5l-15.7-15.7 0.8-0.8 15.7 15.7z"/>
			<path id="&lt;Path&gt;" class="s31" d="m636.5 224.7l-4.5-4.5 0.8-0.8 4.5 4.5z"/>
			<path id="&lt;Path&gt;" class="s31" d="m644.8 232.9l-4.5-4.5 0.8-0.8 4.5 4.5z"/>
			<path id="&lt;Path&gt;" class="s31" d="m661.3 249.5l-12.7-12.8 0.8-0.8 12.7 12.8z"/>
		</g>
		<g id="&lt;Group&gt;">
			<path id="&lt;Path&gt;" class="s30" d="m864.5 287.9l-5.1-5.1 0.8-0.8 5.1 5.1z"/>
			<path id="&lt;Path&gt;" class="s30" d="m835.3 258.7l-16-16 0.8-0.8 16 16z"/>
		</g>
		<g id="&lt;Group&gt;">
			<path id="&lt;Path&gt;" class="s30" d="m433.2 306.8l-5-5 0.8-0.8 5 5z"/>
			<g id="&lt;Group&gt;">
				<path id="&lt;Path&gt;" class="s31" d="m424.5 298.1l-15.8-15.8 0.8-0.8 15.8 15.8z"/>
				<path id="&lt;Path&gt;" class="s30" d="m404.1 277.7l-16-16 0.8-0.8 16 16z"/>
				<path id="&lt;Path&gt;" class="s30" d="m380.3 253.9l-15.9-15.9 0.8-0.8 15.9 15.9z"/>
			</g>
		</g>
		<g id="&lt;Group&gt;">
			<g id="&lt;Group&gt;">
				<g id="&lt;Group&gt;">
					<path id="&lt;Compound Path&gt;" fill-rule="evenodd" class="s31" d="m284.8 286h-120.3c-4.5 0-8.2-3.7-8.2-8.2v-17.7c0-4.5 3.7-8.2 8.2-8.2h120.3c4.5 0 8.2 3.7 8.2 8.2v17.7c0 4.5-3.7 8.2-8.2 8.2zm-120.3-33.1c-4 0-7.2 3.2-7.2 7.2v17.7c0 4 3.2 7.2 7.2 7.2h120.3c4 0 7.2-3.2 7.2-7.2v-17.7c0-4-3.2-7.2-7.2-7.2z"/>
					<path id="&lt;Path&gt;" class="s28" d="m284.8 330.4h-21.7c-4.2 0-7.6-3.4-7.6-7.7v-17.7c0-4.2 3.4-7.6 7.6-7.6h21.7c4.3 0 7.7 3.4 7.7 7.6v17.7c0 4.3-3.4 7.7-7.7 7.7z"/>
					<path id="&lt;Compound Path&gt;" fill-rule="evenodd" class="s31" d="m284.8 330.9h-21.7c-4.5 0-8.1-3.6-8.1-8.2v-17.7c0-4.5 3.6-8.1 8.1-8.1h21.7c4.5 0 8.2 3.6 8.2 8.1v17.7c0 4.6-3.7 8.2-8.2 8.2zm-21.7-33c-3.9 0-7.1 3.2-7.1 7.1v17.7c0 4 3.2 7.2 7.1 7.2h21.7c4 0 7.2-3.2 7.2-7.2v-17.7c0-3.9-3.2-7.1-7.2-7.1z"/>
					<path id="&lt;Compound Path&gt;" fill-rule="evenodd" class="s31" d="m284.8 375.9h-21.7c-4.5 0-8.1-3.7-8.1-8.2v-17.7c0-4.5 3.6-8.2 8.1-8.2h21.7c4.5 0 8.2 3.7 8.2 8.2v17.7c0 4.5-3.7 8.2-8.2 8.2zm-21.7-33.1c-3.9 0-7.1 3.2-7.1 7.2v17.7c0 3.9 3.2 7.2 7.1 7.2h21.7c4 0 7.2-3.3 7.2-7.2v-17.7c0-4-3.2-7.2-7.2-7.2z"/>
					<path id="&lt;Path&gt;" class="s31" d="m232.1 377.3h-22.1v-1h22.1c4 0 7.2-3.2 7.2-7.2v-64.1c0-3.9-3.2-7.1-7.2-7.1h-67.6c-4 0-7.2 3.2-7.2 7.1v64.1c0 4 3.2 7.2 7.2 7.2h37.8v1h-37.8c-4.5 0-8.2-3.7-8.2-8.2v-64.1c0-4.5 3.7-8.1 8.2-8.1h67.6c4.5 0 8.2 3.6 8.2 8.1v64.1c0 4.5-3.7 8.2-8.2 8.2z"/>
				</g>
				<g id="&lt;Group&gt;">
					<path id="&lt;Compound Path&gt;" fill-rule="evenodd" class="s31" d="m174.8 363.5c-2.4 0-4.3-2-4.3-4.4v-21.3c0-2.4 1.9-4.3 4.3-4.3 2.4 0 4.3 1.9 4.3 4.3v21.3c0 2.4-1.9 4.4-4.3 4.4zm0-29c-1.8 0-3.3 1.5-3.3 3.3v21.3c0 1.9 1.5 3.4 3.3 3.4 1.9 0 3.3-1.5 3.3-3.4v-21.3c0-1.8-1.4-3.3-3.3-3.3z"/>
					<path id="&lt;Compound Path&gt;" fill-rule="evenodd" class="s31" d="m190.5 363.5c-2.4 0-4.3-2-4.3-4.4v-14.8c0-2.4 1.9-4.3 4.3-4.3 2.4 0 4.3 1.9 4.3 4.3v14.8c0 2.4-1.9 4.4-4.3 4.4zm0-22.5c-1.9 0-3.3 1.4-3.3 3.3v14.8c0 1.9 1.4 3.4 3.3 3.4 1.8 0 3.3-1.5 3.3-3.4v-14.8c0-1.9-1.5-3.3-3.3-3.3z"/>
					<path id="&lt;Compound Path&gt;" fill-rule="evenodd" class="s31" d="m206.1 363.5c-2.4 0-4.3-2-4.3-4.4v-33.5c0-2.4 1.9-4.3 4.3-4.3 2.4 0 4.4 1.9 4.4 4.3v33.5c0 2.4-2 4.4-4.4 4.4zm0-41.2c-1.8 0-3.3 1.4-3.3 3.3v33.5c0 1.9 1.5 3.4 3.3 3.4 1.9 0 3.4-1.5 3.4-3.4v-33.5c0-1.9-1.5-3.3-3.4-3.3z"/>
					<path id="&lt;Compound Path&gt;" fill-rule="evenodd" class="s31" d="m221.8 363.5c-2.4 0-4.3-2-4.3-4.4v-41.4c0-2.4 1.9-4.3 4.3-4.3 2.4 0 4.3 1.9 4.3 4.3v41.4c0 2.4-1.9 4.4-4.3 4.4zm0-49.1c-1.8 0-3.3 1.5-3.3 3.3v41.4c0 1.9 1.5 3.4 3.3 3.4 1.8 0 3.3-1.5 3.3-3.4v-41.4c0-1.8-1.5-3.3-3.3-3.3z"/>
				</g>
			</g>
			<path id="&lt;Path&gt;" class="s31" d="m293.3 392.1h-83.3v-1h83.3c5.9 0 10.6-4.7 10.6-10.6v-131.8c0-5.8-4.7-10.6-10.6-10.6h-137.3c-5.8 0-10.6 4.8-10.6 10.6v131.8c0 5.9 4.8 10.6 10.6 10.6h46.3v1h-46.3c-6.4 0-11.6-5.2-11.6-11.6v-131.8c0-6.4 5.2-11.6 11.6-11.6h137.3c6.4 0 11.6 5.2 11.6 11.6v131.8c0 6.4-5.2 11.6-11.6 11.6z"/>
			<path id="&lt;Path&gt;" class="s31" d="m293.3 458h-137.3c-6.4 0-11.6-5.3-11.6-11.7v-19.9c0-6.4 5.2-11.6 11.6-11.6h92.1v1h-92.1c-5.8 0-10.6 4.7-10.6 10.6v19.9c0 5.9 4.8 10.7 10.6 10.7h137.3c5.9 0 10.6-4.8 10.6-10.7v-19.9c0-5.9-4.7-10.6-10.6-10.6h-37.1v-1h37.1c6.4 0 11.6 5.2 11.6 11.6v19.9c0 6.4-5.2 11.7-11.6 11.7z"/>
			<g id="&lt;Group&gt;">
				<path id="&lt;Path&gt;" class="s28" d="m177.6 436.4c0 4.5-3.7 8.1-8.2 8.1-4.5 0-8.1-3.6-8.1-8.1 0-4.5 3.6-8.2 8.1-8.2 4.5 0 8.2 3.7 8.2 8.2z"/>
				<path id="&lt;Path&gt;" class="s28" d="m232.8 436.4c0 4.5-3.7 8.1-8.1 8.1-4.5 0-8.2-3.6-8.2-8.1 0-4.5 3.7-8.2 8.2-8.2 4.4 0 8.1 3.7 8.1 8.2z"/>
				<path id="&lt;Path&gt;" class="s28" d="m288 436.4c0 4.5-3.6 8.1-8.1 8.1-4.5 0-8.2-3.6-8.2-8.1 0-4.5 3.7-8.2 8.2-8.2 4.5 0 8.1 3.7 8.1 8.2z"/>
				<path id="&lt;Compound Path&gt;" fill-rule="evenodd" class="s31" d="m169.4 445c-4.7 0-8.6-3.9-8.6-8.6 0-4.8 3.9-8.7 8.6-8.7 4.8 0 8.7 3.9 8.7 8.7 0 4.7-3.9 8.6-8.7 8.6zm0-16.3c-4.2 0-7.6 3.4-7.6 7.7 0 4.2 3.4 7.6 7.6 7.6 4.2 0 7.7-3.4 7.7-7.6 0-4.3-3.5-7.7-7.7-7.7z"/>
				<path id="&lt;Compound Path&gt;" fill-rule="evenodd" class="s31" d="m197 445c-4.7 0-8.6-3.9-8.6-8.6 0-4.8 3.9-8.7 8.6-8.7 4.8 0 8.7 3.9 8.7 8.7 0 4.7-3.9 8.6-8.7 8.6zm0-16.3c-4.2 0-7.6 3.4-7.6 7.7 0 4.2 3.4 7.6 7.6 7.6 4.3 0 7.7-3.4 7.7-7.6 0-4.3-3.4-7.7-7.7-7.7z"/>
				<path id="&lt;Compound Path&gt;" fill-rule="evenodd" class="s31" d="m224.7 445c-4.8 0-8.7-3.9-8.7-8.6 0-4.8 3.9-8.7 8.7-8.7 4.7 0 8.6 3.9 8.6 8.7 0 4.7-3.9 8.6-8.6 8.6zm0-16.3c-4.3 0-7.7 3.4-7.7 7.7 0 4.2 3.4 7.6 7.7 7.6 4.2 0 7.6-3.4 7.6-7.6 0-4.3-3.4-7.7-7.6-7.7z"/>
				<path id="&lt;Compound Path&gt;" fill-rule="evenodd" class="s31" d="m252.3 445c-4.8 0-8.7-3.9-8.7-8.6 0-4.8 3.9-8.7 8.7-8.7 4.7 0 8.6 3.9 8.6 8.7 0 4.7-3.9 8.6-8.6 8.6zm0-16.3c-4.2 0-7.7 3.4-7.7 7.7 0 4.2 3.5 7.6 7.7 7.6 4.2 0 7.6-3.4 7.6-7.6 0-4.3-3.4-7.7-7.6-7.7z"/>
				<path id="&lt;Compound Path&gt;" fill-rule="evenodd" class="s31" d="m279.9 445c-4.8 0-8.7-3.9-8.7-8.6 0-4.8 3.9-8.7 8.7-8.7 4.7 0 8.6 3.9 8.6 8.7 0 4.7-3.9 8.6-8.6 8.6zm0-16.3c-4.2 0-7.7 3.4-7.7 7.7 0 4.2 3.5 7.6 7.7 7.6 4.2 0 7.6-3.4 7.6-7.6 0-4.3-3.4-7.7-7.6-7.7z"/>
				<path id="&lt;Path&gt;" class="s31" d="m252.8 428.2h-1v-15.3c0-4-3.4-7.4-7.4-7.4h-30.4c-4.6 0-8.4-3.7-8.4-8.4v-34.1h1v34.1c0 4.1 3.4 7.4 7.4 7.4h30.4c4.6 0 8.4 3.8 8.4 8.4z"/>
			</g>
		</g>
		<g id="&lt;Group&gt;">
			<g id="&lt;Group&gt;" style="opacity: .5">
			</g>
			<g id="&lt;Group&gt;">
			</g>
			<g id="&lt;Group&gt;">
			</g>
			<g id="&lt;Group&gt;" style="opacity: .5">
			</g>
			<g id="&lt;Group&gt;">
				<g id="&lt;Group&gt;">
					<g id="&lt;Group&gt;">
					</g>
				</g>
			</g>
			<g id="&lt;Group&gt;">
			</g>
			<g id="&lt;Group&gt;">
			</g>
		</g>
		<path id="&lt;Compound Path&gt;" fill-rule="evenodd" class="s28" d="m791 600.4c-3.2 0-6.2-0.6-8.4-1.9l-142.2-81.4c-2.3-1.3-3.5-3.2-3.5-5.2 0-2.3 1.7-4.7 4.8-6.5l73.3-42.3c5.7-3.3 14.3-3.6 19.2-0.8l142.2 81.5c2.3 1.3 3.5 3.1 3.5 5.1 0 2.4-1.7 4.8-4.8 6.5l-73.3 42.3c-3.1 1.8-7.1 2.7-10.8 2.7zm-65.2-139c-3.6 0-7.3 0.8-10.3 2.5l-73.3 42.4c-2.7 1.5-4.3 3.6-4.3 5.6 0 1.7 1 3.2 3 4.3l142.2 81.5c4.6 2.6 12.8 2.3 18.2-0.8l73.3-42.3c2.7-1.6 4.3-3.7 4.3-5.7 0-1.6-1-3.2-3-4.3l-142.2-81.4c-2.1-1.2-4.9-1.8-7.9-1.8z"/>
		<path id="&lt;Compound Path&gt;" fill-rule="evenodd" class="s31" d="m791 580.9c-3.2 0-6.2-0.6-8.4-1.9l-142.2-81.5c-2.3-1.3-3.5-3.1-3.5-5.1 0-2.4 1.7-4.8 4.8-6.5l73.3-42.4c5.7-3.2 14.3-3.6 19.2-0.7l142.2 81.4c2.3 1.3 3.5 3.2 3.5 5.2 0 2.3-1.7 4.7-4.8 6.5l-73.3 42.3c-3.1 1.8-7.1 2.7-10.8 2.7zm-65.2-139.1c-3.6 0-7.3 0.9-10.3 2.6l-73.3 42.3c-2.7 1.6-4.3 3.7-4.3 5.7 0 1.6 1 3.1 3 4.3l142.2 81.4c4.6 2.7 12.8 2.4 18.2-0.8l73.3-42.3c2.7-1.6 4.3-3.6 4.3-5.6 0-1.7-1-3.2-3-4.3l-142.2-81.5c-2.1-1.2-4.9-1.8-7.9-1.8z"/>
		<g id="&lt;Group&gt;">
			<g id="&lt;Group&gt;" style="opacity: .5">
				<path id="&lt;Path&gt;" class="s32" d="m809.6 313.3q0 0 0-0.1 0 0.1 0 0.1 0 0 0 0z"/>
			</g>
			<g id="&lt;Group&gt;">
				<g id="&lt;Group&gt;">
					<path id="&lt;Path&gt;" class="s33" d="m855 312.7l-122.6-70.8c-1.4-0.8-2.6-0.8-3.6-0.3l-65 37.5 63.2 138.9v28.7c0 4 2.4 8.5 5.4 10.2l16.8 9.8 44.8 98.5 64.4-37.1q0.1 0 0.1 0l0.2-0.1c1-0.7 1.7-2.2 1.7-4.3v-200.7c0-4-2.4-8.6-5.4-10.3z"/>
					<path id="&lt;Path&gt;" class="s34" d="m855 312.7l-122.6-70.8c-1.4-0.8-2.6-0.8-3.6-0.3l-65 37.5 53.8 118.2 140.7-81.2c-0.9-1.4-2-2.7-3.3-3.4z"/>
					<path id="&lt;Path&gt;" class="s35" d="m790.2 565.1l-122.7-70.8c-2.9-1.7-5.3-6.3-5.3-10.2v-200.8c0-4 2.4-5.8 5.3-4.1l122.7 70.9c3 1.7 5.4 6.3 5.4 10.2v200.8c0 3.9-2.4 5.7-5.4 4z"/>
					<path id="&lt;Path&gt;" class="s36" d="m742.5 327.8l-70.9-41c-2.8-1.5-5 0.1-5 3.8v191.1c0 2.9 1.3 6 3.1 8.1l72.8-42z"/>
					<path id="&lt;Path&gt;" class="s37" d="m790 554.9l-114.5-66.2c-2.8-1.6-5-5.9-5-9.5v-191.2q0-0.8 0.1-1.6c-2.3-0.7-4 1-4 4.2v191.1c0 3.7 2.2 8 5 9.6l114.6 66.2c2.3 1.3 4.2 0.3 4.8-2.2q-0.5-0.1-1-0.4z"/>
					<path id="&lt;Path&gt;" class="s38" d="m786.2 353l-57.3-33.1v129.2c0 3.7 2.2 7.9 5 9.5l57.3 33.1v-129.1c0-3.7-2.3-8-5-9.6z"/>
					<g id="&lt;Group&gt;">
						<path id="&lt;Path&gt;" class="s39" d="m667.5 279.2l122.7 70.9c1.3 0.7 2.4 1.9 3.3 3.4l64.8-37.4c-0.9-1.4-2-2.7-3.3-3.4l-122.6-70.8c-1.4-0.8-2.6-0.8-3.6-0.3l-64.6 37.3c0.9-0.5 2.1-0.4 3.3 0.3z"/>
						<path id="&lt;Path&gt;" class="s40" d="m793.9 352.2c-0.9-1.5-2.4-2.7-3.7-3.4l-122.7-70.8q-0.5-0.3-0.9-0.5l-2.4 1.4c0.9-0.5 2.1-0.4 3.3 0.3l122.7 70.9c1.3 0.7 2.4 1.9 3.3 3.4l64.8-37.4q-0.3-0.5-0.6-0.9z"/>
						<path id="&lt;Path&gt;" class="s41" d="m663.8 279.1q0 0 0 0z"/>
					</g>
					<path id="&lt;Path&gt;" class="s42" d="m663.8 279.1q0 0 0 0z"/>
					<path id="&lt;Compound Path&gt;" fill-rule="evenodd" class="s43" d="m808.9 536.4q-0.7 0-1.3-0.4c-1-0.5-1.6-1.8-1.6-3.5v-158.9c0-3 1.9-6.5 4.2-7.8l36.7-21.2c1-0.6 2.1-0.7 3-0.2 1 0.6 1.6 1.9 1.6 3.5v158.9c0 3.1-1.9 6.5-4.2 7.9l-36.7 21.1q-0.9 0.6-1.7 0.6zm39.7-191.4q-0.6 0-1.3 0.4l-36.7 21.2c-2 1.2-3.6 4.3-3.6 7v158.9c0 1.3 0.4 2.3 1.1 2.7q0.9 0.5 2.1-0.2l36.7-21.2c2-1.1 3.6-4.3 3.6-7v-158.9c0-1.3-0.4-2.3-1.1-2.7q-0.3-0.2-0.8-0.2z"/>
					<path id="&lt;Path&gt;" class="s44" d="m739.3 513.3l9.3-5.4v-176.5l-7.5-4.4z"/>
					<path id="&lt;Path&gt;" class="s45" d="m689.7 297.3v181.8c0 4 2.4 8.6 5.3 10.3l40.7 23.6c3 1.7 5.4-0.1 5.4-4v-182z"/>
					<path id="&lt;Path&gt;" class="s46" d="m786.2 353l-38.3-22.1v181.9c0 3.9 2.4 8.5 5.4 10.2l37.9 22.1v-182.5c0-3.7-2.3-8-5-9.6z"/>
					<path id="&lt;Path&gt;" class="s43" d="m791.2 536.8l-32.4-18.7c-2.5-1.4-4.6-5.4-4.6-8.7v-174.8l-0.8-0.5v175.3c0 3.6 2.2 7.9 4.9 9.5l32.9 18.9z"/>
					<g id="&lt;Group&gt;">
						<path id="&lt;Compound Path&gt;" fill-rule="evenodd" class="s43" d="m732.1 389.9q-0.7 0-1.3-0.3l-30.3-17.5c-1.6-0.9-2.8-3.3-2.8-5.5v-47.9c0-1.1 0.4-2.1 1.1-2.5 0.6-0.4 1.4-0.3 2.2 0.1l30.2 17.5c1.7 0.9 2.9 3.3 2.9 5.5v47.9c0 1.1-0.4 2.1-1.1 2.5q-0.4 0.2-0.9 0.2zm-32.4-73q-0.2 0-0.4 0.1c-0.4 0.3-0.7 0.9-0.7 1.7v47.9c0 1.8 1.1 3.9 2.4 4.7l30.2 17.4c0.4 0.2 0.9 0.4 1.3 0.2 0.4-0.3 0.7-0.9 0.7-1.7v-47.9c0-1.8-1.1-3.9-2.4-4.7l-30.3-17.4c-0.2-0.2-0.5-0.3-0.8-0.3z"/>
						<path id="&lt;Compound Path&gt;" fill-rule="evenodd" class="s43" d="m732.1 410.6q-0.7 0-1.3-0.4l-30.3-17.4c-1.6-1-2.8-3.4-2.8-5.5v-4.9c0-1.2 0.4-2.1 1.1-2.6 0.6-0.3 1.4-0.3 2.2 0.2l30.2 17.4c1.7 1 2.9 3.4 2.9 5.5v4.9c0 1.2-0.4 2.1-1.1 2.6q-0.4 0.2-0.9 0.2zm-32.4-30.1q-0.2 0-0.4 0.2c-0.4 0.2-0.7 0.8-0.7 1.7v4.9c0 1.8 1.1 3.9 2.4 4.7l30.2 17.4c0.4 0.2 0.9 0.4 1.3 0.2 0.4-0.3 0.7-0.9 0.7-1.8v-4.9c0-1.8-1.1-3.9-2.4-4.7l-30.3-17.4c-0.2-0.1-0.5-0.3-0.8-0.3z"/>
						<path id="&lt;Compound Path&gt;" fill-rule="evenodd" class="s43" d="m732.1 431.3q-0.7 0-1.3-0.4l-30.3-17.5c-1.6-0.9-2.8-3.3-2.8-5.4v-4.9c0-1.2 0.4-2.2 1.1-2.6 0.6-0.4 1.4-0.3 2.2 0.2l30.2 17.4c1.7 0.9 2.9 3.3 2.9 5.5v4.9c0 1.2-0.4 2.1-1.1 2.5q-0.4 0.3-0.9 0.3zm-32.4-30.1q-0.2 0-0.4 0.1c-0.4 0.3-0.7 0.9-0.7 1.8v4.9c0 1.7 1.1 3.9 2.4 4.6l30.2 17.5c0.4 0.2 0.9 0.4 1.3 0.1 0.4-0.2 0.7-0.9 0.7-1.7v-4.9c0-1.8-1.1-3.9-2.4-4.7l-30.3-17.4c-0.2-0.2-0.5-0.3-0.8-0.3z"/>
						<path id="&lt;Compound Path&gt;" fill-rule="evenodd" class="s43" d="m732.1 451.9q-0.7 0-1.3-0.3l-30.3-17.5c-1.6-0.9-2.8-3.3-2.8-5.5v-4.9c0-1.2 0.4-2.1 1.1-2.5 0.6-0.4 1.4-0.3 2.2 0.1l30.2 17.5c1.7 0.9 2.9 3.3 2.9 5.4v5c0 1.2-0.4 2.1-1.1 2.5q-0.4 0.2-0.9 0.2zm-32.4-30q-0.2 0-0.4 0.1c-0.4 0.2-0.7 0.9-0.7 1.7v4.9c0 1.8 1.1 3.9 2.4 4.7l30.2 17.4c0.4 0.2 0.9 0.4 1.3 0.2 0.4-0.3 0.7-0.9 0.7-1.7v-5c0-1.7-1.1-3.9-2.4-4.6l-30.3-17.5c-0.2-0.1-0.5-0.2-0.8-0.2z"/>
						<path id="&lt;Compound Path&gt;" fill-rule="evenodd" class="s43" d="m732.1 472.6q-0.7 0-1.3-0.4l-30.3-17.4c-1.6-1-2.8-3.4-2.8-5.5v-4.9c0-1.2 0.4-2.1 1.1-2.6 0.6-0.3 1.4-0.3 2.2 0.2l30.2 17.4c1.7 1 2.9 3.4 2.9 5.5v4.9c0 1.2-0.4 2.1-1.1 2.6q-0.4 0.2-0.9 0.2zm-0.9-1.2c0.4 0.2 0.9 0.4 1.3 0.2 0.4-0.3 0.7-0.9 0.7-1.8v-4.9c0-1.8-1.1-3.9-2.4-4.6l-30.3-17.5c-0.3-0.2-0.8-0.4-1.2-0.1-0.4 0.2-0.7 0.8-0.7 1.7v4.9c0 1.8 1.1 3.9 2.4 4.7z"/>
						<path id="&lt;Compound Path&gt;" fill-rule="evenodd" class="s43" d="m732.1 493.3q-0.7 0-1.3-0.4l-30.3-17.5c-1.6-0.9-2.8-3.3-2.8-5.4v-4.9c0-1.2 0.4-2.2 1.1-2.6 0.6-0.4 1.4-0.3 2.2 0.2l30.2 17.4c1.7 0.9 2.9 3.3 2.9 5.5v4.9c0 1.2-0.4 2.1-1.1 2.5q-0.4 0.3-0.9 0.3zm-0.9-1.2c0.4 0.2 0.9 0.4 1.3 0.1 0.4-0.2 0.7-0.9 0.7-1.7v-4.9c0-1.8-1.1-3.9-2.4-4.7l-30.3-17.4c-0.3-0.2-0.8-0.4-1.2-0.2-0.4 0.3-0.7 0.9-0.7 1.8v4.9c0 1.7 1.1 3.9 2.4 4.6z"/>
					</g>
					<path id="&lt;Path&gt;" class="s43" d="m761.4 435.1l-0.2-0.1c-0.5-0.3-0.9-1.1-0.9-1.8v-8c0-0.7 0.4-1 0.9-0.7h0.2c0.5 0.3 0.9 1.1 0.9 1.8v8.1c0 0.6-0.4 1-0.9 0.7z"/>
					<path id="&lt;Path&gt;" class="s47" d="m791.2 553.7v-191.1c0-3.7-2.3-8-5-9.6l-60.6-34.9v204.4l60.6 35c2.7 1.6 5-0.1 5-3.8z"/>
					<path id="&lt;Path&gt;" class="s47" d="m788.2 556.2l-60.5-35v-201.9l-2.1-1.2v204.4l60.6 35c1.8 1 3.3 0.6 4.2-0.7q-1 0-2.2-0.6z"/>
					<path id="&lt;Path&gt;" class="s48" d="m733.1 429.5l-0.1-0.1c-0.6-0.3-1-1.1-1-1.9v-13.1c0-0.7 0.4-1.1 1-0.8l0.1 0.1c0.6 0.3 1 1.2 1 2v13.1c0 0.7-0.4 1.1-1 0.7z"/>
					<g id="&lt;Group&gt;">
						<path id="&lt;Path&gt;" class="s49" d="m669.4 302.6h-1.6v-5.3c0-0.5 0.4-0.8 0.8-0.8 0.5 0 0.8 0.3 0.8 0.8z"/>
						<path id="&lt;Path&gt;" class="s49" d="m667.8 303h1.6v5.3c0 0.4-0.3 0.8-0.8 0.8-0.4 0-0.8-0.4-0.8-0.8z"/>
					</g>
					<g id="&lt;Group&gt;">
						<path id="&lt;Path&gt;" class="s49" d="m669.4 473.4h-1.6v-5.3c0-0.4 0.4-0.8 0.8-0.8 0.5 0 0.8 0.4 0.8 0.8z"/>
						<path id="&lt;Path&gt;" class="s49" d="m667.8 473.8h1.6v5.4c0 0.4-0.3 0.8-0.8 0.8-0.4 0-0.8-0.4-0.8-0.8z"/>
					</g>
					<g id="&lt;Group&gt;">
						<path id="&lt;Path&gt;" class="s43" d="m828.4 363.4l-16 9.2v-1.7l16-9.2z"/>
						<path id="&lt;Path&gt;" class="s43" d="m846.2 353.1l-15.9 9.2v-1.7l15.9-9.2z"/>
						<path id="&lt;Path&gt;" class="s50" d="m827.8 362v1.2l-15.4 8.9v0.5l16-9.2v-1.7z"/>
						<path id="&lt;Path&gt;" class="s50" d="m845.7 351.7v1.2l-15.4 8.8v0.6l15.9-9.2v-1.7z"/>
					</g>
					<g id="&lt;Group&gt;">
						<path id="&lt;Path&gt;" class="s43" d="m828.4 368.6l-16 9.2v-1.7l16-9.2z"/>
						<path id="&lt;Path&gt;" class="s43" d="m846.2 358.2l-15.9 9.2v-1.7l15.9-9.2z"/>
						<path id="&lt;Path&gt;" class="s50" d="m827.8 367.2v1.1l-15.4 8.9v0.6l16-9.2v-1.7z"/>
						<path id="&lt;Path&gt;" class="s50" d="m845.7 356.9v1.1l-15.4 8.9v0.5l15.9-9.2v-1.7z"/>
					</g>
					<g id="&lt;Group&gt;">
						<path id="&lt;Path&gt;" class="s43" d="m828.4 373.7l-16 9.2v-1.7l16-9.2z"/>
						<path id="&lt;Path&gt;" class="s43" d="m846.2 363.4l-15.9 9.2v-1.7l15.9-9.2z"/>
						<path id="&lt;Path&gt;" class="s50" d="m827.8 372.3v1.2l-15.4 8.9v0.5l16-9.2v-1.7z"/>
						<path id="&lt;Path&gt;" class="s50" d="m845.7 362v1.2l-15.4 8.9v0.5l15.9-9.2v-1.7z"/>
					</g>
				</g>
				<g id="&lt;Group&gt;">
					<path id="&lt;Path&gt;" class="s40" d="m703.7 325.7l-0.9-0.6v-1.1l0.9 0.5z"/>
					<path id="&lt;Path&gt;" class="s40" d="m703.7 327.9l-0.9-0.6v-1.1l0.9 0.5z"/>
					<path id="&lt;Path&gt;" class="s40" d="m703.7 330.1l-0.9-0.6v-1.1l0.9 0.6z"/>
					<path id="&lt;Path&gt;" class="s40" d="m703.7 332.3l-0.9-0.6v-1.1l0.9 0.6z"/>
					<path id="&lt;Path&gt;" class="s40" d="m703.7 339.7l-0.9-0.6v-1.1l0.9 0.6z"/>
					<path id="&lt;Path&gt;" class="s40" d="m708.3 342.4l-0.9-0.6v-1.1l0.9 0.5z"/>
					<path id="&lt;Path&gt;" class="s40" d="m710.3 343.5l-1-0.6v-1.1l1 0.5z"/>
					<path id="&lt;Path&gt;" class="s40" d="m710.3 357.5l-1-0.6v-1.1l1 0.6z"/>
					<path id="&lt;Path&gt;" class="s40" d="m710.3 363.1l-1-0.6v-1.1l1 0.6z"/>
					<path id="&lt;Path&gt;" class="s40" d="m712.2 344.6l-1-0.6v-1.1l1 0.6z"/>
				</g>
				<g id="&lt;Group&gt;">
					<path id="&lt;Path&gt;" class="s40" d="m703.9 387.9l-1-0.5v-1.2l1 0.6z"/>
					<path id="&lt;Path&gt;" class="s40" d="m706 389.1l-1-0.5v-1.2l1 0.6z"/>
					<path id="&lt;Path&gt;" class="s40" d="m708.1 390.3l-1-0.5v-1.2l1 0.6z"/>
					<path id="&lt;Path&gt;" class="s40" d="m710.1 391.5l-0.9-0.5v-1.2l0.9 0.6z"/>
					<path id="&lt;Path&gt;" class="s40" d="m710.1 394.5l-0.9-0.5v-1.2l0.9 0.6z"/>
					<path id="&lt;Path&gt;" class="s40" d="m714.2 396.9l-1-0.6v-1.1l1 0.6z"/>
					<path id="&lt;Path&gt;" class="s40" d="m724.8 400l-12.4-7.2v-1.1l12.4 7.2z"/>
					<path id="&lt;Path&gt;" class="s40" d="m702.9 406.8l-0.9-0.6v-1.1l0.9 0.5z"/>
					<path id="&lt;Path&gt;" class="s40" d="m705 408l-1-0.6v-1.1l1 0.5z"/>
					<path id="&lt;Path&gt;" class="s40" d="m707.1 409.2l-1-0.6v-1.1l1 0.5z"/>
					<path id="&lt;Path&gt;" class="s40" d="m702.9 409.8l-0.9-0.6v-1.1l0.9 0.6z"/>
					<path id="&lt;Path&gt;" class="s40" d="m705 411l-1-0.6v-1.1l1 0.6z"/>
					<path id="&lt;Path&gt;" class="s40" d="m707.1 412.2l-1-0.6v-1.1l1 0.6z"/>
					<path id="&lt;Path&gt;" class="s40" d="m705 428.6l-1-0.6v-1.1l1 0.5z"/>
					<path id="&lt;Path&gt;" class="s40" d="m707.1 429.8l-1-0.6v-1.1l1 0.5z"/>
					<path id="&lt;Path&gt;" class="s40" d="m711.2 432.2l-1-0.6v-1.1l1 0.5z"/>
					<path id="&lt;Path&gt;" class="s40" d="m713.2 433.4l-0.9-0.6v-1.1l0.9 0.6z"/>
					<path id="&lt;Path&gt;" class="s40" d="m717.3 435.8l-0.9-0.6v-1.1l0.9 0.6z"/>
					<path id="&lt;Path&gt;" class="s40" d="m708.4 434.6l-1-0.5v-1.1l1 0.5z"/>
					<path id="&lt;Path&gt;" class="s40" d="m719.4 437l-1-0.6v-1.1l1 0.6z"/>
					<path id="&lt;Path&gt;" class="s40" d="m715.9 413.8l-1-0.5v-1.1l1 0.5z"/>
					<path id="&lt;Path&gt;" class="s40" d="m718 415l-1-0.5v-1.1l1 0.5z"/>
				</g>
				<path id="&lt;Path&gt;" class="s47" d="m727.7 319.3l-56.1-32.5c-2.8-1.5-5 0.1-5 3.8v191.1c0 3.7 2.2 8 5 9.6l56.1 32.4z"/>
				<path id="&lt;Path&gt;" class="s48" d="m720.6 422.8l-0.2-0.1c-0.5-0.3-1-1.2-1-1.9v-13.2c0-0.7 0.5-1 1-0.7l0.2 0.1c0.5 0.3 1 1.1 1 1.9v13.1c0 0.8-0.5 1.1-1 0.8z"/>
			</g>
			<path id="&lt;Path&gt;" class="s12" d="m836.9 510.7l-14.4 8.3v-23.9l14.4-8.3z"/>
			<path id="&lt;Path&gt;" class="s51" d="m835.7 487.5v22.5l-13.2 7.6v1.4l14.4-8.3v-23.9z"/>
			<path id="&lt;Path&gt;" class="s52" d="m850.1 518.4l-13.2-7.6v-24l13.2 7.6z"/>
			<path id="&lt;Path&gt;" class="s53" d="m848.9 519.1l-13.2-7.6v-24l13.2 7.5z"/>
			<path id="&lt;Path&gt;" class="s54" d="m848.9 519.1l1.2-0.7v-24l-13.2-7.6-1.2 0.7 13.2 7.5z"/>
			<path id="&lt;Path&gt;" class="s40" d="m828.4 495.5l-0.8 0.5v-0.9l0.8-0.5z"/>
			<path id="&lt;Path&gt;" class="s40" d="m830 494.6l-0.8 0.4v-0.9l0.8-0.4z"/>
			<path id="&lt;Path&gt;" class="s40" d="m831.6 493.6l-0.7 0.5v-0.9l0.7-0.5z"/>
			<path id="&lt;Path&gt;" class="s40" d="m831.7 495.4l-0.7 0.4v-0.8l0.7-0.5z"/>
			<path id="&lt;Path&gt;" class="s40" d="m825.6 505.3l-0.7 0.4v-0.9l0.7-0.4z"/>
			<path id="&lt;Path&gt;" class="s40" d="m833.7 501.8l-0.8 0.4v-0.9l0.8-0.4z"/>
			<path id="&lt;Path&gt;" class="s40" d="m825.6 507.4l-0.7 0.5v-0.9l0.7-0.5z"/>
			<path id="&lt;Path&gt;" class="s40" d="m825.6 509.6l-0.7 0.5v-0.9l0.7-0.5z"/>
			<path id="&lt;Path&gt;" class="s40" d="m825.6 511.8l-0.7 0.4v-0.9l0.7-0.4z"/>
			<path id="&lt;Path&gt;" class="s40" d="m833.3 492.7l-0.8 0.5v-0.9l0.8-0.5z"/>
		</g>
		<g id="&lt;Group&gt;">
			<g id="&lt;Group&gt;">
				<g id="&lt;Group&gt;">
					<path id="&lt;Compound Path&gt;" fill-rule="evenodd" class="s28" d="m498.8 509.3c-1.4 0-2.8-0.3-3.9-0.9l-146.9-84.8c-1.1-0.6-1.7-1.5-1.7-2.5 0-1.2 0.8-2.4 2.3-3.2l94.3-54.4c2.6-1.6 6.5-1.7 8.8-0.4l147 84.8c1.1 0.7 1.7 1.6 1.7 2.6 0 1.1-0.9 2.3-2.3 3.1l-94.3 54.5c-1.5 0.8-3.3 1.2-5 1.2zm-3.4-1.7c2 1.1 5.5 0.9 7.9-0.4l94.3-54.4c1.1-0.7 1.8-1.5 1.8-2.3 0-0.7-0.5-1.2-1.2-1.7l-147-84.8c-2-1.2-5.5-1-7.8 0.3l-94.3 54.5c-1.2 0.6-1.8 1.5-1.8 2.3 0 0.6 0.4 1.2 1.2 1.6z"/>
					<path id="&lt;Compound Path&gt;" fill-rule="evenodd" class="s31" d="m498.8 486.2c-1.4 0-2.8-0.3-3.9-0.9l-146.9-84.9c-1.1-0.6-1.7-1.5-1.7-2.5 0-1.2 0.8-2.3 2.3-3.2l94.3-54.4c2.6-1.5 6.5-1.7 8.8-0.3l147 84.8c1.1 0.6 1.7 1.5 1.7 2.5 0 1.2-0.9 2.3-2.3 3.2l-94.3 54.4c-1.5 0.8-3.3 1.3-5 1.3zm-3.4-1.8c2 1.1 5.5 1 7.9-0.4l94.3-54.4c1.1-0.7 1.8-1.5 1.8-2.3 0-0.6-0.5-1.2-1.2-1.6l-147-84.9c-2-1.1-5.5-1-7.8 0.4l-94.3 54.4c-1.2 0.7-1.8 1.5-1.8 2.3 0 0.6 0.4 1.2 1.2 1.7z"/>
					<path id="&lt;Path&gt;" class="s55" d="m637.4 290.5l-146.3-84.5c-1-0.5-2.1-0.7-3-0.4q0 0 0 0l-2.7 1 0.9 0.2q-0.5 0.7-0.8 1.7l-33.1 107.4c-0.9 2.7 0.3 5.9 2.6 7.2l146.4 84.5q0.5 0.3 1.1 0.5l-0.4 0.8 2.6-1c1-0.4 1.9-1.3 2.3-2.7l33.1-107.4c0.8-2.7-0.4-5.9-2.7-7.3z"/>
					<path id="&lt;Path&gt;" class="s56" d="m596.1 411.6l0.1 0.1-144.6-83.5c-2.1-1.2-5.8-1-8.3 0.4l-93.3 53.9-3.2-1.2 0.9 4.4c0.1 0.6 0.6 1.3 1.4 1.7l145.9 84.3c2.1 1.2 5.8 1 8.3-0.4l93.6-54c1.2-0.7 1.9-1.5 2-2.3l0.9-4.3z"/>
					<path id="&lt;Path&gt;" class="s57" d="m495.2 467.8l-147-84.8c-2.1-1.2-1.8-3.4 0.6-4.8l94.3-54.5c2.5-1.4 6.2-1.6 8.4-0.3l146.9 84.8c2.2 1.2 1.9 3.4-0.6 4.8l-94.3 54.5c-2.5 1.4-6.2 1.6-8.3 0.3z"/>
					<path id="&lt;Path&gt;" class="s40" d="m348.2 380.5l147 84.9c2.1 1.2 5.8 1 8.3-0.4l94.3-54.4c0.8-0.5 1.3-1 1.6-1.5 0.9 1.2 0.4 2.8-1.6 3.9l-94.3 54.5c-2.5 1.4-6.2 1.6-8.3 0.3l-147-84.8c-1.5-0.9-1.7-2.2-1-3.4q0.4 0.5 1 0.9z"/>
					<path id="&lt;Path&gt;" class="s31" d="m598.9 408.5l-146.4-84.5c-2.3-1.3-3.5-4.6-2.6-7.2l33.1-107.5c0.8-2.6 3.3-3.7 5.6-2.4l146.4 84.5c2.3 1.3 3.5 4.6 2.6 7.2l-33.1 107.5c-0.8 2.6-3.3 3.7-5.6 2.4z"/>
					<path id="&lt;Compound Path&gt;" fill-rule="evenodd" class="s31" d="m600.9 409.4q-1.1 0-2.2-0.6l-146.3-84.5c-2.4-1.4-3.7-4.8-2.8-7.6l33.1-107.5c0.4-1.4 1.3-2.4 2.5-2.9 1.1-0.5 2.4-0.3 3.6 0.3l146.3 84.5c2.4 1.4 3.7 4.8 2.8 7.6l-33.1 107.5c-0.4 1.4-1.3 2.4-2.5 2.9q-0.7 0.3-1.4 0.3zm-114.3-202.7q-0.6-0.1-1.2 0.2c-1 0.4-1.8 1.3-2.1 2.5l-33.1 107.5c-0.8 2.5 0.3 5.6 2.5 6.8l146.3 84.5c1 0.6 2.1 0.7 3.1 0.3 1-0.4 1.8-1.3 2.1-2.5l33.1-107.5c0.8-2.5-0.3-5.6-2.5-6.8l-146.3-84.5q-1-0.5-1.9-0.5z"/>
				</g>
				<g id="&lt;Group&gt;" style="opacity: .5">
					<path id="&lt;Path&gt;" class="s32" d="m421.5 367.4l-4.8-2.8c-0.4-0.2-0.4-0.6 0.1-0.8l5.7-3.4c0.5-0.2 1.1-0.2 1.5 0l4.9 2.8c0.4 0.2 0.3 0.6-0.1 0.9l-5.8 3.3c-0.4 0.2-1.1 0.3-1.5 0z"/>
					<path id="&lt;Path&gt;" class="s32" d="m429 371.8l-4.8-2.8c-0.4-0.3-0.4-0.6 0.1-0.9l5.7-3.3c0.5-0.3 1.1-0.3 1.5-0.1l4.9 2.8c0.4 0.2 0.3 0.6-0.1 0.9l-5.8 3.3c-0.4 0.3-1.1 0.3-1.5 0.1z"/>
					<path id="&lt;Path&gt;" class="s32" d="m436.5 376.1l-4.8-2.8c-0.4-0.2-0.4-0.6 0.1-0.9l5.7-3.3c0.5-0.2 1.1-0.3 1.5-0.1l4.9 2.9c0.4 0.2 0.3 0.6-0.1 0.8l-5.7 3.3c-0.5 0.3-1.2 0.3-1.6 0.1z"/>
					<path id="&lt;Path&gt;" class="s32" d="m446.9 372.5l-4.9-2.8c-0.3-0.2-0.3-0.6 0.2-0.9l4.8-2.7c0.4-0.3 1.1-0.3 1.5-0.1l4.9 2.8c0.3 0.2 0.3 0.6-0.2 0.9l-4.8 2.8c-0.4 0.2-1.1 0.3-1.5 0z"/>
					<path id="&lt;Path&gt;" class="s32" d="m454.4 376.9l-4.8-2.8c-0.4-0.3-0.4-0.7 0.1-0.9l4.8-2.8c0.4-0.3 1.1-0.3 1.5-0.1l4.9 2.8c0.3 0.3 0.3 0.7-0.2 0.9l-4.8 2.8c-0.4 0.3-1.1 0.3-1.5 0.1z"/>
					<path id="&lt;Path&gt;" class="s32" d="m461.9 381.2l-4.8-2.8c-0.4-0.2-0.4-0.6 0.1-0.9l4.8-2.8c0.4-0.2 1.1-0.3 1.5 0l4.9 2.8c0.4 0.2 0.3 0.6-0.1 0.9l-4.9 2.7c-0.4 0.3-1.1 0.3-1.5 0.1z"/>
					<path id="&lt;Path&gt;" class="s32" d="m469.4 385.5l-4.8-2.8c-0.4-0.2-0.4-0.6 0.1-0.9l4.8-2.7c0.4-0.3 1.1-0.3 1.5-0.1l4.9 2.8c0.4 0.2 0.3 0.6-0.1 0.9l-4.9 2.8c-0.4 0.2-1.1 0.3-1.5 0z"/>
					<path id="&lt;Path&gt;" class="s32" d="m476.9 389.9l-4.8-2.8c-0.4-0.3-0.4-0.7 0.1-0.9l4.8-2.8c0.4-0.3 1.1-0.3 1.5-0.1l4.9 2.8c0.4 0.3 0.3 0.7-0.1 0.9l-4.9 2.8c-0.4 0.3-1.1 0.3-1.5 0.1z"/>
					<path id="&lt;Path&gt;" class="s32" d="m484.4 394.2l-4.8-2.8c-0.4-0.2-0.4-0.6 0.1-0.9l4.8-2.8c0.4-0.2 1.1-0.3 1.5 0l4.9 2.8c0.4 0.2 0.3 0.6-0.1 0.8l-4.9 2.8c-0.4 0.3-1.1 0.3-1.5 0.1z"/>
					<path id="&lt;Path&gt;" class="s32" d="m491.9 398.5l-4.8-2.8c-0.4-0.2-0.4-0.6 0.1-0.9l4.8-2.7c0.4-0.3 1.1-0.3 1.5-0.1l4.9 2.8c0.4 0.2 0.3 0.6-0.1 0.9l-4.8 2.8c-0.5 0.2-1.2 0.2-1.6 0z"/>
					<path id="&lt;Path&gt;" class="s32" d="m499.4 402.9l-4.8-2.9c-0.4-0.2-0.4-0.6 0.1-0.8l4.8-2.8c0.4-0.3 1.1-0.3 1.5-0.1l4.9 2.8c0.4 0.3 0.3 0.7-0.1 0.9l-4.8 2.8c-0.5 0.3-1.2 0.3-1.6 0.1z"/>
					<path id="&lt;Path&gt;" class="s32" d="m506.9 407.2l-4.8-2.8c-0.4-0.2-0.4-0.6 0.1-0.9l4.8-2.8c0.5-0.2 1.1-0.3 1.5 0l4.9 2.8c0.4 0.2 0.3 0.6-0.1 0.8l-4.8 2.8c-0.5 0.3-1.2 0.3-1.6 0.1z"/>
					<path id="&lt;Path&gt;" class="s32" d="m514.4 411.5l-4.8-2.8c-0.4-0.2-0.4-0.6 0.1-0.9l4.8-2.7c0.5-0.3 1.1-0.3 1.5-0.1l4.9 2.8c0.4 0.2 0.3 0.6-0.1 0.9l-4.8 2.8c-0.5 0.2-1.2 0.2-1.6 0z"/>
					<path id="&lt;Path&gt;" class="s32" d="m458 370.5l-4.9-2.8c-0.4-0.3-0.3-0.6 0.1-0.9l4.8-2.8c0.5-0.2 1.2-0.3 1.6 0l4.8 2.8c0.4 0.2 0.4 0.6-0.1 0.8l-4.8 2.8c-0.5 0.3-1.1 0.3-1.5 0.1z"/>
					<path id="&lt;Path&gt;" class="s32" d="m450.3 366.1l-4.8-2.8c-0.4-0.2-0.4-0.6 0.1-0.9l4.8-2.8c0.5-0.2 1.1-0.3 1.5 0l4.9 2.8c0.4 0.2 0.3 0.6-0.1 0.8l-4.8 2.8c-0.5 0.3-1.2 0.3-1.6 0.1z"/>
					<path id="&lt;Path&gt;" class="s32" d="m442.7 361.7l-10.4-6.1c-0.4-0.2-0.4-0.6 0.1-0.8l4.8-2.8c0.4-0.3 1.1-0.3 1.5-0.1l10.5 6.1c0.4 0.2 0.3 0.6-0.1 0.8l-4.9 2.8c-0.4 0.3-1.1 0.3-1.5 0.1z"/>
					<path id="&lt;Path&gt;" class="s32" d="m448.1 356.3l-8.5-4.9c-0.4-0.2-0.4-0.6 0.1-0.9l4.8-2.7c0.4-0.3 1.1-0.3 1.5-0.1l8.5 4.9c0.4 0.2 0.3 0.6-0.1 0.9l-4.8 2.8c-0.5 0.2-1.2 0.2-1.5 0z"/>
					<path id="&lt;Path&gt;" class="s32" d="m465.5 374.8l-4.9-2.8c-0.4-0.2-0.3-0.6 0.1-0.9l4.8-2.8c0.5-0.2 1.2-0.2 1.6 0l4.8 2.8c0.4 0.2 0.4 0.6-0.1 0.9l-4.8 2.7c-0.5 0.3-1.1 0.3-1.5 0.1z"/>
					<path id="&lt;Path&gt;" class="s32" d="m473 379.1l-4.9-2.8c-0.4-0.2-0.3-0.6 0.1-0.8l4.8-2.8c0.5-0.3 1.2-0.3 1.6-0.1l4.8 2.8c0.4 0.2 0.4 0.6-0.1 0.9l-4.8 2.8c-0.5 0.2-1.1 0.3-1.5 0z"/>
					<path id="&lt;Path&gt;" class="s32" d="m480.5 383.5l-4.9-2.8c-0.4-0.3-0.3-0.6 0.1-0.9l4.8-2.8c0.5-0.2 1.2-0.3 1.6-0.1l4.8 2.9c0.4 0.2 0.4 0.6-0.1 0.8l-4.8 2.8c-0.5 0.3-1.1 0.3-1.5 0.1z"/>
					<path id="&lt;Path&gt;" class="s32" d="m488 387.8l-4.9-2.8c-0.4-0.2-0.3-0.6 0.1-0.9l4.8-2.8c0.5-0.2 1.2-0.2 1.6 0l4.8 2.8c0.4 0.2 0.4 0.6-0.1 0.9l-4.8 2.7c-0.4 0.3-1.1 0.3-1.5 0.1z"/>
					<path id="&lt;Path&gt;" class="s32" d="m495.5 392.1l-4.9-2.8c-0.4-0.2-0.3-0.6 0.1-0.8l4.8-2.8c0.5-0.3 1.2-0.3 1.6-0.1l4.8 2.8c0.4 0.2 0.4 0.6-0.1 0.9l-4.8 2.8c-0.4 0.2-1.1 0.3-1.5 0z"/>
					<path id="&lt;Path&gt;" class="s32" d="m503 396.5l-4.9-2.8c-0.4-0.3-0.3-0.7 0.1-0.9l4.9-2.8c0.4-0.3 1.1-0.3 1.5-0.1l4.8 2.8c0.4 0.3 0.4 0.7-0.1 0.9l-4.8 2.8c-0.4 0.3-1.1 0.3-1.5 0.1z"/>
					<path id="&lt;Path&gt;" class="s32" d="m510.5 400.8l-4.9-2.8c-0.4-0.2-0.3-0.6 0.1-0.9l4.9-2.8c0.4-0.2 1.1-0.2 1.5 0l4.8 2.8c0.4 0.2 0.4 0.6-0.1 0.9l-4.8 2.7c-0.4 0.3-1.1 0.3-1.5 0.1z"/>
					<path id="&lt;Path&gt;" class="s32" d="m518 405.1l-4.9-2.8c-0.4-0.2-0.3-0.6 0.1-0.8l4.9-2.8c0.4-0.3 1.1-0.3 1.5-0.1l4.8 2.8c0.4 0.2 0.4 0.6-0.1 0.9l-4.8 2.8c-0.4 0.2-1.1 0.3-1.5 0z"/>
					<path id="&lt;Path&gt;" class="s32" d="m525.5 409.5l-4.9-2.8c-0.4-0.3-0.3-0.7 0.1-0.9l4.9-2.8c0.4-0.3 1.1-0.3 1.5-0.1l4.8 2.8c0.4 0.3 0.4 0.7-0.1 0.9l-4.8 2.8c-0.4 0.3-1.1 0.3-1.5 0.1z"/>
					<path id="&lt;Path&gt;" class="s32" d="m538.8 417.2l-10.6-6.2c-0.4-0.2-0.3-0.6 0.1-0.8l4.9-2.8c0.4-0.3 1.1-0.3 1.5-0.1l10.6 6.1c0.4 0.3 0.3 0.7-0.1 0.9l-4.8 2.8c-0.5 0.3-1.2 0.3-1.6 0.1z"/>
					<path id="&lt;Path&gt;" class="s32" d="m553.4 408.7l-8.9-5.1c-0.4-0.3-0.3-0.7 0.1-0.9l4.8-2.8c0.5-0.2 1.2-0.3 1.5-0.1l9 5.2c0.4 0.2 0.3 0.6-0.1 0.9l-4.8 2.8c-0.5 0.2-1.2 0.3-1.6 0z"/>
					<path id="&lt;Path&gt;" class="s32" d="m478.6 374l-4.8-2.8c-0.4-0.3-0.4-0.7 0.1-0.9l4.8-2.8c0.4-0.3 1.1-0.3 1.5-0.1l4.9 2.8c0.3 0.3 0.3 0.7-0.2 0.9l-4.8 2.8c-0.4 0.3-1.1 0.3-1.5 0.1z"/>
					<path id="&lt;Path&gt;" class="s32" d="m470.9 369.5l-4.8-2.8c-0.4-0.2-0.4-0.6 0.1-0.9l4.8-2.7c0.4-0.3 1.1-0.3 1.5-0.1l4.9 2.8c0.4 0.2 0.3 0.6-0.1 0.9l-4.9 2.8c-0.4 0.2-1.1 0.2-1.5 0z"/>
					<path id="&lt;Path&gt;" class="s32" d="m463.2 365.1l-4.8-2.8c-0.4-0.2-0.4-0.6 0.1-0.9l4.8-2.8c0.4-0.2 1.1-0.3 1.5 0l4.9 2.8c0.4 0.2 0.3 0.6-0.1 0.8l-4.8 2.8c-0.5 0.3-1.2 0.3-1.6 0.1z"/>
					<path id="&lt;Path&gt;" class="s32" d="m455.5 360.6l-4.8-2.8c-0.4-0.2-0.4-0.6 0.1-0.8l4.8-2.8c0.5-0.3 1.1-0.3 1.5-0.1l4.9 2.8c0.4 0.2 0.3 0.6-0.1 0.9l-4.8 2.8c-0.5 0.2-1.2 0.3-1.6 0z"/>
					<path id="&lt;Path&gt;" class="s32" d="m486.1 378.3l-4.8-2.8c-0.4-0.2-0.4-0.6 0.1-0.9l4.8-2.8c0.4-0.2 1.1-0.3 1.5 0l4.9 2.8c0.3 0.2 0.3 0.6-0.2 0.9l-4.8 2.7c-0.4 0.3-1.1 0.3-1.5 0.1z"/>
					<path id="&lt;Path&gt;" class="s32" d="m493.6 382.6l-4.8-2.8c-0.4-0.2-0.4-0.6 0.1-0.9l4.8-2.7c0.4-0.3 1.1-0.3 1.5-0.1l4.9 2.8c0.4 0.2 0.3 0.6-0.1 0.9l-4.9 2.8c-0.4 0.2-1.1 0.3-1.5 0z"/>
					<path id="&lt;Path&gt;" class="s32" d="m501.1 387l-4.8-2.8c-0.4-0.3-0.4-0.7 0.1-0.9l4.8-2.8c0.4-0.3 1.1-0.3 1.5-0.1l4.9 2.8c0.4 0.3 0.3 0.7-0.1 0.9l-4.9 2.8c-0.4 0.3-1.1 0.3-1.5 0.1z"/>
					<path id="&lt;Path&gt;" class="s32" d="m508.6 391.3l-4.8-2.8c-0.4-0.2-0.4-0.6 0.1-0.9l4.8-2.8c0.4-0.2 1.1-0.3 1.5 0l4.9 2.8c0.4 0.2 0.3 0.6-0.1 0.8l-4.9 2.8c-0.4 0.3-1.1 0.3-1.5 0.1z"/>
					<path id="&lt;Path&gt;" class="s32" d="m516.1 395.6l-4.8-2.8c-0.4-0.2-0.4-0.6 0.1-0.9l4.8-2.7c0.4-0.3 1.1-0.3 1.5-0.1l4.9 2.8c0.4 0.2 0.3 0.6-0.1 0.9l-4.9 2.8c-0.4 0.2-1.1 0.2-1.5 0z"/>
					<path id="&lt;Path&gt;" class="s32" d="m523.6 400l-4.8-2.8c-0.4-0.3-0.4-0.7 0.1-0.9l4.8-2.8c0.4-0.3 1.1-0.3 1.5-0.1l4.9 2.8c0.4 0.3 0.3 0.7-0.1 0.9l-4.8 2.8c-0.5 0.3-1.2 0.3-1.6 0.1z"/>
					<path id="&lt;Path&gt;" class="s32" d="m531.1 404.3l-4.8-2.8c-0.4-0.2-0.4-0.6 0.1-0.9l4.8-2.8c0.5-0.2 1.1-0.3 1.5 0l4.9 2.8c0.4 0.2 0.3 0.6-0.1 0.8l-4.8 2.8c-0.5 0.3-1.2 0.3-1.6 0.1z"/>
					<path id="&lt;Path&gt;" class="s32" d="m538.6 408.6l-4.8-2.8c-0.4-0.2-0.4-0.6 0.1-0.9l4.8-2.7c0.5-0.3 1.1-0.3 1.5-0.1l4.9 2.8c0.4 0.2 0.3 0.6-0.1 0.9l-4.8 2.8c-0.5 0.2-1.2 0.2-1.6 0z"/>
					<path id="&lt;Path&gt;" class="s32" d="m546.1 413l-4.8-2.9c-0.4-0.2-0.4-0.6 0.1-0.8l4.8-2.8c0.5-0.3 1.1-0.3 1.5-0.1l4.9 2.8c0.4 0.3 0.3 0.6-0.1 0.9l-4.8 2.8c-0.5 0.2-1.2 0.3-1.6 0.1z"/>
					<path id="&lt;Path&gt;" class="s32" d="m474.7 363.2l-4.9-2.8c-0.4-0.2-0.3-0.6 0.1-0.8l4.8-2.8c0.5-0.3 1.2-0.3 1.5-0.1l4.9 2.8c0.4 0.3 0.3 0.6-0.1 0.9l-4.8 2.8c-0.5 0.2-1.2 0.3-1.5 0z"/>
					<path id="&lt;Path&gt;" class="s32" d="m467.2 358.9l-4.9-2.8c-0.4-0.2-0.3-0.6 0.1-0.8l4.9-2.8c0.4-0.3 1.1-0.3 1.5-0.1l4.8 2.8c0.4 0.2 0.4 0.6-0.1 0.9l-4.8 2.8c-0.4 0.2-1.1 0.3-1.5 0z"/>
					<path id="&lt;Path&gt;" class="s32" d="m459.7 354.6l-4.8-2.8c-0.4-0.2-0.4-0.6 0.1-0.9l4.8-2.7c0.4-0.3 1.1-0.3 1.5-0.1l4.9 2.8c0.4 0.2 0.3 0.6-0.1 0.9l-4.9 2.8c-0.4 0.2-1.1 0.3-1.5 0z"/>
					<path id="&lt;Path&gt;" class="s32" d="m452.3 350.3l-4.9-2.8c-0.4-0.2-0.3-0.6 0.1-0.9l4.8-2.7c0.5-0.3 1.2-0.3 1.5-0.1l4.9 2.8c0.4 0.2 0.3 0.6-0.1 0.9l-4.8 2.8c-0.5 0.2-1.2 0.2-1.5 0z"/>
					<path id="&lt;Path&gt;" class="s32" d="m459.9 345.9l-4.8-2.8c-0.4-0.2-0.4-0.6 0.1-0.9l1.6-0.9c0.4-0.3 1.1-0.3 1.5-0.1l4.9 2.8c0.3 0.2 0.3 0.6-0.1 0.9l-1.6 0.9c-0.5 0.3-1.2 0.3-1.6 0.1z"/>
					<path id="&lt;Path&gt;" class="s32" d="m469.7 351.5l-4.9-2.8c-0.4-0.2-0.3-0.6 0.1-0.9l1.6-0.9c0.5-0.3 1.2-0.3 1.5-0.1l4.9 2.8c0.4 0.3 0.3 0.7-0.1 0.9l-1.6 0.9c-0.4 0.3-1.1 0.3-1.5 0.1z"/>
					<path id="&lt;Path&gt;" class="s32" d="m477.1 355.8l-4.8-2.8c-0.4-0.2-0.4-0.6 0.1-0.9l1.6-0.9c0.4-0.3 1.1-0.3 1.5-0.1l4.8 2.8c0.4 0.3 0.4 0.7-0.1 0.9l-1.6 0.9c-0.4 0.3-1.1 0.3-1.5 0.1z"/>
					<path id="&lt;Path&gt;" class="s32" d="m484.6 360.1l-4.9-2.8c-0.4-0.2-0.3-0.6 0.1-0.9l1.6-0.9c0.4-0.3 1.1-0.3 1.5-0.1l4.9 2.8c0.4 0.3 0.3 0.7-0.1 0.9l-1.6 0.9c-0.5 0.3-1.2 0.3-1.5 0.1z"/>
					<path id="&lt;Path&gt;" class="s32" d="m492 364.4l-4.9-2.8c-0.4-0.2-0.3-0.6 0.1-0.9l1.6-0.9c0.5-0.3 1.2-0.3 1.5-0.1l4.9 2.8c0.4 0.2 0.3 0.6-0.1 0.9l-1.6 0.9c-0.4 0.3-1.1 0.3-1.5 0.1z"/>
					<path id="&lt;Path&gt;" class="s32" d="m533.5 388.4l-4.9-2.9c-0.4-0.2-0.3-0.6 0.1-0.8l1.6-1c0.5-0.2 1.2-0.2 1.6 0l4.8 2.8c0.4 0.2 0.4 0.6-0.1 0.9l-1.6 0.9c-0.4 0.2-1.1 0.3-1.5 0.1z"/>
					<path id="&lt;Path&gt;" class="s32" d="m540.9 392.6l-4.8-2.8c-0.4-0.2-0.4-0.6 0.1-0.8l1.6-1c0.4-0.2 1.1-0.2 1.5 0l4.9 2.8c0.3 0.2 0.3 0.6-0.2 0.9l-1.5 0.9c-0.5 0.2-1.2 0.3-1.6 0z"/>
					<path id="&lt;Path&gt;" class="s32" d="m548.4 396.9l-4.9-2.8c-0.4-0.2-0.3-0.6 0.1-0.8l1.6-1c0.5-0.2 1.1-0.3 1.5 0l4.9 2.8c0.4 0.2 0.3 0.6-0.1 0.9l-1.6 0.9c-0.5 0.2-1.1 0.3-1.5 0z"/>
					<path id="&lt;Path&gt;" class="s32" d="m555.8 401.2l-4.9-2.8c-0.3-0.2-0.3-0.6 0.2-0.9l1.5-0.9c0.5-0.2 1.2-0.3 1.6 0l4.8 2.8c0.4 0.2 0.4 0.6-0.1 0.8l-1.6 1c-0.4 0.2-1.1 0.3-1.5 0z"/>
					<path id="&lt;Path&gt;" class="s32" d="m482.2 367.6l-4.9-2.8c-0.4-0.3-0.3-0.6 0.1-0.9l4.8-2.8c0.5-0.2 1.2-0.3 1.5 0l4.9 2.8c0.4 0.2 0.3 0.6-0.1 0.8l-4.8 2.8c-0.5 0.3-1.1 0.3-1.5 0.1z"/>
					<path id="&lt;Path&gt;" class="s32" d="m489.7 371.9l-4.9-2.8c-0.4-0.2-0.3-0.6 0.1-0.9l4.8-2.8c0.5-0.2 1.2-0.2 1.6 0l4.8 2.8c0.4 0.2 0.4 0.6-0.1 0.9l-4.8 2.7c-0.5 0.3-1.1 0.3-1.5 0.1z"/>
					<path id="&lt;Path&gt;" class="s32" d="m497.2 376.2l-4.9-2.8c-0.4-0.2-0.3-0.6 0.1-0.8l4.8-2.8c0.5-0.3 1.2-0.3 1.6-0.1l4.8 2.8c0.4 0.2 0.4 0.6-0.1 0.9l-4.8 2.8c-0.5 0.2-1.1 0.3-1.5 0z"/>
					<path id="&lt;Path&gt;" class="s32" d="m504.7 380.6l-4.9-2.8c-0.4-0.3-0.3-0.6 0.1-0.9l4.8-2.8c0.5-0.2 1.2-0.3 1.6-0.1l4.8 2.9c0.4 0.2 0.4 0.6-0.1 0.8l-4.8 2.8c-0.5 0.3-1.1 0.3-1.5 0.1z"/>
					<path id="&lt;Path&gt;" class="s32" d="m512.2 384.9l-4.9-2.8c-0.4-0.2-0.3-0.6 0.1-0.9l4.8-2.8c0.5-0.2 1.2-0.2 1.6 0l4.8 2.8c0.4 0.2 0.4 0.6-0.1 0.9l-4.8 2.7c-0.5 0.3-1.1 0.3-1.5 0.1z"/>
					<path id="&lt;Path&gt;" class="s32" d="m519.7 389.2l-4.9-2.8c-0.4-0.2-0.3-0.6 0.1-0.8l4.8-2.8c0.5-0.3 1.2-0.3 1.6-0.1l4.8 2.8c0.4 0.2 0.4 0.6-0.1 0.9l-4.8 2.8c-0.4 0.2-1.1 0.3-1.5 0z"/>
					<path id="&lt;Path&gt;" class="s32" d="m527.2 393.6l-4.9-2.8c-0.4-0.3-0.3-0.7 0.1-0.9l4.8-2.8c0.5-0.3 1.2-0.3 1.6-0.1l4.8 2.9c0.4 0.2 0.4 0.6-0.1 0.8l-4.8 2.8c-0.4 0.3-1.1 0.3-1.5 0.1z"/>
					<path id="&lt;Path&gt;" class="s32" d="m534.7 397.9l-4.9-2.8c-0.4-0.2-0.3-0.6 0.1-0.9l4.9-2.8c0.4-0.2 1.1-0.2 1.5 0l4.8 2.8c0.4 0.2 0.4 0.6-0.1 0.9l-4.8 2.7c-0.4 0.3-1.1 0.3-1.5 0.1z"/>
					<path id="&lt;Path&gt;" class="s32" d="m542.2 402.2l-4.9-2.8c-0.4-0.2-0.3-0.6 0.1-0.8l4.9-2.8c0.4-0.3 1.1-0.3 1.5-0.1l4.8 2.8c0.4 0.2 0.4 0.6-0.1 0.9l-4.8 2.8c-0.4 0.2-1.1 0.3-1.5 0z"/>
					<path id="&lt;Path&gt;" class="s32" d="m439.3 368.1l-14.3-8.2c-0.4-0.3-0.4-0.7 0.1-0.9l4.8-2.8c0.4-0.3 1.1-0.3 1.5-0.1l14.3 8.3c0.4 0.2 0.3 0.6-0.1 0.9l-4.8 2.8c-0.5 0.2-1.1 0.2-1.5 0z"/>
					<path id="&lt;Path&gt;" class="s32" d="m531.4 421.3l-14.3-8.2c-0.4-0.3-0.3-0.6 0.1-0.9l4.9-2.8c0.4-0.2 1.1-0.3 1.5 0l14.3 8.2c0.4 0.2 0.3 0.6-0.1 0.9l-4.8 2.8c-0.5 0.2-1.2 0.3-1.6 0z"/>
					<path id="&lt;Path&gt;" class="s32" d="m501.4 413.6l-4.8-2.8c-0.4-0.2-0.4-0.6 0.1-0.9l5.7-3.3c0.5-0.3 1.2-0.3 1.5-0.1l4.9 2.8c0.4 0.3 0.3 0.6-0.1 0.9l-5.7 3.3c-0.5 0.3-1.2 0.3-1.6 0.1z"/>
					<path id="&lt;Path&gt;" class="s32" d="m446.9 382.1l-7.7-4.5c-0.4-0.2-0.4-0.6 0.1-0.8l5.7-3.4c0.5-0.2 1.2-0.2 1.5 0l7.8 4.5c0.4 0.2 0.4 0.6-0.1 0.8l-5.7 3.4c-0.5 0.2-1.2 0.2-1.6 0z"/>
					<path id="&lt;Path&gt;" class="s32" d="m494.2 409.4l-7.8-4.5c-0.4-0.2-0.3-0.6 0.1-0.9l5.8-3.3c0.4-0.2 1.1-0.3 1.5 0l7.8 4.5c0.4 0.2 0.3 0.6-0.1 0.8l-5.8 3.3c-0.4 0.3-1.1 0.3-1.5 0.1z"/>
					<path id="&lt;Path&gt;" class="s32" d="m457.8 388.4l-7.8-4.5c-0.4-0.2-0.3-0.6 0.1-0.9l5.7-3.3c0.5-0.3 1.2-0.3 1.6-0.1l7.7 4.5c0.4 0.2 0.4 0.6-0.1 0.9l-5.7 3.3c-0.5 0.3-1.1 0.3-1.5 0.1z"/>
					<path id="&lt;Path&gt;" class="s32" d="m457.4 379.7l33.8 19.5c0.4 0.2 0.4 0.6 0 0.8l-5.8 3.4c-0.5 0.3-1.1 0.3-1.6 0l-33.7-19.5z"/>
					<path id="&lt;Path&gt;" class="s32" d="m522.4 421.4l5.4 3.2c0.3 0.1 0.3 0.5-0.1 0.7l-2.3 1.3c-0.4 0.2-0.9 0.3-1.3 0.1l-5.4-3.1c-0.3-0.2-0.3-0.5 0.1-0.8l2.4-1.3c0.3-0.2 0.9-0.2 1.2-0.1z"/>
					<path id="&lt;Path&gt;" class="s32" d="m514.8 417.1l5.5 3.1c0.3 0.2 0.2 0.5-0.1 0.7l-2.4 1.4c-0.3 0.2-0.9 0.2-1.2 0l-5.4-3.1c-0.4-0.2-0.3-0.5 0.1-0.7l2.3-1.4c0.4-0.2 0.9-0.2 1.2 0z"/>
					<path id="&lt;Path&gt;" class="s32" d="m507.3 412.7l5.5 3.2c0.3 0.1 0.2 0.5-0.1 0.7l-2.4 1.3c-0.4 0.2-0.9 0.3-1.2 0.1l-5.4-3.1c-0.4-0.2-0.3-0.5 0-0.8l2.4-1.3c0.4-0.2 0.9-0.2 1.2-0.1z"/>
					<path id="&lt;Path&gt;" class="s32" d="m519 414.7l5.4 3.1c0.3 0.2 0.3 0.5-0.1 0.7l-2.3 1.4c-0.4 0.2-1 0.2-1.3 0l-5.4-3.1c-0.3-0.2-0.3-0.5 0.1-0.7l2.3-1.4c0.4-0.2 1-0.2 1.3 0z"/>
				</g>
				<path id="&lt;Compound Path&gt;" fill-rule="evenodd" class="s58" d="m458.1 429.5c-1.2 0-2.5-0.3-3.4-0.8l-37.7-21.8c-1-0.5-1.5-1.3-1.5-2.2 0-1.1 0.7-2.1 2-2.8l19.4-11.2c2.4-1.4 5.8-1.5 7.9-0.4l37.7 21.8c1 0.6 1.5 1.4 1.5 2.3 0 1-0.8 2-2 2.8l-19.5 11.2c-1.2 0.7-2.8 1.1-4.4 1.1zm-2.9-1.6c1.7 1 4.8 0.9 6.9-0.3l19.4-11.2c1-0.6 1.6-1.3 1.6-2 0-0.7-0.6-1.2-1.1-1.5l-37.7-21.8c-1.7-1-4.9-0.8-6.9 0.3l-19.4 11.3c-1 0.5-1.6 1.3-1.6 2 0 0.7 0.6 1.1 1 1.4z"/>
			</g>
			<g id="&lt;Group&gt;">
				<g id="&lt;Group&gt;">
					<g id="&lt;Group&gt;">
						<path id="&lt;Path&gt;" class="s40" d="m503.8 247.9l-4.3-2.5c-0.4-0.2-0.6-0.7-0.4-1.2 0.1-0.4 0.5-0.6 0.9-0.4l4.3 2.5c0.4 0.2 0.6 0.8 0.5 1.2-0.2 0.5-0.6 0.6-1 0.4z"/>
						<path id="&lt;Path&gt;" class="s40" d="m514 253.8l-6.3-3.6c-0.4-0.3-0.6-0.8-0.5-1.3 0.2-0.4 0.6-0.6 1-0.4l6.3 3.7c0.4 0.2 0.6 0.7 0.5 1.2-0.2 0.4-0.6 0.6-1 0.4z"/>
						<path id="&lt;Path&gt;" class="s40" d="m495.2 267l-4.3-2.5c-0.4-0.2-0.6-0.8-0.5-1.2 0.2-0.5 0.6-0.7 1-0.4l4.3 2.4c0.4 0.3 0.6 0.8 0.4 1.3-0.1 0.4-0.5 0.6-0.9 0.4z"/>
						<path id="&lt;Path&gt;" class="s40" d="m504.3 272.2l-6.3-3.6c-0.4-0.3-0.7-0.8-0.5-1.3 0.1-0.4 0.5-0.6 0.9-0.4l6.4 3.7c0.4 0.2 0.6 0.8 0.4 1.2-0.1 0.5-0.5 0.6-0.9 0.4z"/>
						<path id="&lt;Path&gt;" class="s40" d="m491 244.5l-2.7-1.5c-0.4-0.3-0.6-0.8-0.5-1.3 0.2-0.4 0.6-0.6 1-0.4l2.7 1.6c0.4 0.2 0.6 0.8 0.5 1.2-0.2 0.5-0.6 0.6-1 0.4z"/>
						<path id="&lt;Path&gt;" class="s40" d="m499 253.2l-8.1-4.8c-0.4-0.2-0.6-0.7-0.5-1.2 0.1-0.4 0.6-0.6 1-0.4l8.1 4.7c0.4 0.3 0.6 0.8 0.5 1.3-0.1 0.4-0.6 0.6-1 0.4z"/>
						<path id="&lt;Path&gt;" class="s40" d="m491.5 256.8l-2.7-1.5c-0.4-0.2-0.6-0.8-0.5-1.2 0.2-0.5 0.6-0.7 1-0.4l2.7 1.5c0.4 0.2 0.6 0.8 0.5 1.2-0.2 0.5-0.6 0.7-1 0.4z"/>
						<path id="&lt;Path&gt;" class="s40" d="m505.3 280.8l-7.2-4.1c-0.4-0.3-0.6-0.8-0.5-1.3 0.2-0.4 0.6-0.6 1-0.4l7.1 4.2c0.4 0.2 0.7 0.8 0.5 1.2-0.1 0.5-0.5 0.6-0.9 0.4z"/>
						<path id="&lt;Path&gt;" class="s40" d="m488.5 263.1l-1.7-1c-0.4-0.2-0.6-0.8-0.5-1.2 0.1-0.5 0.6-0.6 1-0.4l1.7 1c0.4 0.2 0.6 0.8 0.5 1.2-0.2 0.5-0.6 0.6-1 0.4z"/>
						<path id="&lt;Path&gt;" class="s40" d="m486.9 270.2l-2.2-1.2c-0.4-0.3-0.6-0.8-0.4-1.3 0.1-0.4 0.5-0.6 0.9-0.4l2.2 1.3c0.4 0.2 0.6 0.7 0.4 1.2-0.1 0.4-0.5 0.6-0.9 0.4z"/>
						<path id="&lt;Path&gt;" class="s40" d="m495.2 275l-5.6-3.3c-0.4-0.2-0.7-0.7-0.5-1.2 0.1-0.4 0.5-0.6 0.9-0.4l5.7 3.2c0.4 0.3 0.6 0.8 0.4 1.3-0.1 0.4-0.5 0.6-0.9 0.4z"/>
						<path id="&lt;Path&gt;" class="s40" d="m487.8 274.7l-4.1-2.3c-0.4-0.2-0.6-0.8-0.5-1.3 0.2-0.4 0.6-0.6 1-0.4l4.1 2.4c0.4 0.2 0.6 0.8 0.4 1.2-0.1 0.5-0.5 0.6-0.9 0.4z"/>
						<path id="&lt;Path&gt;" class="s40" d="m511.4 284.4l-2.6-1.5c-0.4-0.3-0.6-0.8-0.5-1.3 0.1-0.4 0.6-0.6 1-0.4l2.6 1.5c0.4 0.3 0.6 0.8 0.4 1.3-0.1 0.4-0.5 0.6-0.9 0.4z"/>
						<path id="&lt;Path&gt;" class="s40" d="m501.4 262.6l-7.1-4.1c-0.4-0.3-0.6-0.8-0.5-1.3 0.2-0.4 0.6-0.6 1-0.4l7.1 4.1c0.4 0.3 0.6 0.8 0.5 1.3-0.1 0.4-0.6 0.6-1 0.4z"/>
					</g>
					<path id="&lt;Path&gt;" class="s40" d="m502.3 259.1l-12.5-7.2c-0.4-0.3-0.6-0.8-0.4-1.3 0.1-0.4 0.5-0.6 0.9-0.4l12.5 7.2c0.4 0.3 0.6 0.8 0.5 1.3-0.2 0.4-0.6 0.6-1 0.4z"/>
					<path id="&lt;Path&gt;" class="s40" d="m494.9 262.8l-7.1-4.1c-0.4-0.2-0.6-0.8-0.5-1.2 0.2-0.5 0.6-0.7 1-0.4l7.1 4.1c0.4 0.2 0.6 0.8 0.5 1.2-0.1 0.5-0.6 0.7-1 0.4z"/>
					<path id="&lt;Path&gt;" class="s40" d="m506.9 265.7l-2.6-1.5c-0.4-0.2-0.6-0.8-0.5-1.2 0.1-0.5 0.6-0.7 1-0.4l2.6 1.5c0.3 0.2 0.6 0.8 0.4 1.2-0.1 0.5-0.5 0.6-0.9 0.4z"/>
					<path id="&lt;Path&gt;" class="s40" d="m527 261.3l-9.1-5.3c-0.4-0.2-0.6-0.7-0.5-1.2 0.2-0.4 0.6-0.6 1-0.4l9.1 5.3c0.4 0.2 0.6 0.7 0.5 1.2-0.1 0.4-0.6 0.6-1 0.4z"/>
					<path id="&lt;Path&gt;" class="s40" d="m494.4 270.5l-8.6-5c-0.4-0.2-0.6-0.7-0.5-1.2 0.1-0.4 0.6-0.6 1-0.4l8.5 5c0.4 0.2 0.6 0.7 0.5 1.2-0.1 0.5-0.6 0.6-0.9 0.4z"/>
					<path id="&lt;Path&gt;" class="s40" d="m495.6 243.2l-6.3-3.6c-0.4-0.3-0.6-0.8-0.4-1.3 0.1-0.4 0.5-0.6 0.9-0.4l6.3 3.7c0.4 0.2 0.6 0.7 0.5 1.2-0.1 0.4-0.6 0.6-1 0.4z"/>
					<path id="&lt;Path&gt;" class="s40" d="m486.4 278l-7.3-4.3c-0.4-0.2-0.6-0.7-0.4-1.2 0.1-0.4 0.5-0.6 0.9-0.4l7.3 4.2c0.4 0.3 0.6 0.8 0.5 1.3-0.1 0.4-0.6 0.6-1 0.4z"/>
				</g>
				<g id="&lt;Group&gt;">
					<g id="&lt;Group&gt;">
						<path id="&lt;Path&gt;" class="s40" d="m492.6 285.8l-4.3-2.5c-0.4-0.2-0.6-0.8-0.4-1.2 0.1-0.5 0.5-0.6 0.9-0.4l4.3 2.5c0.4 0.2 0.6 0.7 0.5 1.2-0.2 0.4-0.6 0.6-1 0.4z"/>
						<path id="&lt;Path&gt;" class="s40" d="m502.8 291.7l-6.3-3.7c-0.4-0.2-0.6-0.8-0.5-1.2 0.2-0.5 0.6-0.6 1-0.4l6.3 3.6c0.4 0.3 0.6 0.8 0.5 1.3-0.2 0.4-0.6 0.6-1 0.4z"/>
						<path id="&lt;Path&gt;" class="s40" d="m484 304.8l-4.3-2.4c-0.4-0.3-0.6-0.8-0.5-1.3 0.2-0.4 0.6-0.6 1-0.4l4.3 2.5c0.4 0.2 0.6 0.8 0.4 1.2-0.1 0.5-0.5 0.7-0.9 0.4z"/>
						<path id="&lt;Path&gt;" class="s40" d="m493.1 310.1l-6.3-3.7c-0.4-0.2-0.6-0.7-0.5-1.2 0.1-0.4 0.6-0.6 0.9-0.4l6.4 3.7c0.4 0.2 0.6 0.7 0.4 1.2-0.1 0.4-0.5 0.6-0.9 0.4z"/>
						<path id="&lt;Path&gt;" class="s40" d="m479.8 282.4l-2.7-1.6c-0.4-0.2-0.6-0.7-0.5-1.2 0.2-0.4 0.6-0.6 1-0.4l2.7 1.6c0.4 0.2 0.6 0.7 0.5 1.2-0.2 0.4-0.6 0.6-1 0.4z"/>
						<path id="&lt;Path&gt;" class="s40" d="m487.8 291l-8.1-4.7c-0.4-0.2-0.6-0.8-0.5-1.2 0.1-0.5 0.6-0.6 1-0.4l8.1 4.7c0.4 0.2 0.6 0.8 0.5 1.2-0.1 0.5-0.6 0.7-1 0.4z"/>
						<path id="&lt;Path&gt;" class="s40" d="m480.3 294.7l-2.7-1.5c-0.4-0.3-0.6-0.8-0.4-1.3 0.1-0.4 0.5-0.6 0.9-0.4l2.7 1.6c0.4 0.2 0.6 0.8 0.5 1.2-0.2 0.5-0.6 0.6-1 0.4z"/>
						<path id="&lt;Path&gt;" class="s40" d="m494.1 318.7l-7.2-4.1c-0.4-0.3-0.6-0.8-0.5-1.3 0.2-0.4 0.6-0.6 1-0.4l7.1 4.1c0.4 0.3 0.7 0.8 0.5 1.3-0.1 0.4-0.5 0.6-0.9 0.4z"/>
						<path id="&lt;Path&gt;" class="s40" d="m477.3 301l-1.7-1c-0.4-0.2-0.6-0.8-0.5-1.2 0.1-0.5 0.6-0.7 1-0.4l1.7 1c0.4 0.2 0.6 0.7 0.5 1.2-0.2 0.4-0.6 0.6-1 0.4z"/>
						<path id="&lt;Path&gt;" class="s40" d="m475.7 308.1l-2.2-1.3c-0.3-0.2-0.6-0.7-0.4-1.2 0.1-0.4 0.5-0.6 0.9-0.4l2.2 1.2c0.4 0.3 0.6 0.8 0.4 1.3-0.1 0.4-0.5 0.6-0.9 0.4z"/>
						<path id="&lt;Path&gt;" class="s40" d="m484 312.9l-5.6-3.3c-0.4-0.2-0.7-0.8-0.5-1.2 0.1-0.5 0.5-0.7 0.9-0.4l5.7 3.2c0.4 0.3 0.6 0.8 0.4 1.3-0.1 0.4-0.5 0.6-0.9 0.4z"/>
						<path id="&lt;Path&gt;" class="s40" d="m476.6 312.6l-4.1-2.3c-0.4-0.3-0.6-0.8-0.4-1.3 0.1-0.4 0.5-0.6 0.9-0.4l4.1 2.4c0.4 0.2 0.6 0.7 0.4 1.2-0.1 0.4-0.5 0.6-0.9 0.4z"/>
						<path id="&lt;Path&gt;" class="s40" d="m500.2 322.2l-2.6-1.5c-0.4-0.2-0.6-0.7-0.5-1.2 0.2-0.4 0.6-0.6 1-0.4l2.6 1.5c0.4 0.2 0.6 0.8 0.4 1.2-0.1 0.5-0.5 0.7-0.9 0.4z"/>
						<path id="&lt;Path&gt;" class="s40" d="m490.3 300.4l-7.2-4.1c-0.4-0.2-0.6-0.8-0.5-1.2 0.2-0.5 0.6-0.6 1-0.4l7.1 4.1c0.4 0.2 0.6 0.8 0.5 1.2-0.1 0.5-0.6 0.7-0.9 0.4z"/>
					</g>
					<path id="&lt;Path&gt;" class="s40" d="m491.1 296.9l-12.5-7.2c-0.3-0.2-0.6-0.7-0.4-1.2 0.1-0.4 0.5-0.6 0.9-0.4l12.5 7.2c0.4 0.2 0.6 0.8 0.5 1.2-0.2 0.5-0.6 0.7-1 0.4z"/>
					<path id="&lt;Path&gt;" class="s40" d="m483.8 300.7l-7.2-4.1c-0.4-0.2-0.6-0.8-0.5-1.2 0.2-0.5 0.6-0.7 1-0.5l7.1 4.2c0.4 0.2 0.6 0.8 0.5 1.2-0.1 0.5-0.6 0.6-0.9 0.4z"/>
					<path id="&lt;Path&gt;" class="s40" d="m495.7 303.6l-2.6-1.5c-0.4-0.2-0.6-0.8-0.5-1.3 0.1-0.4 0.6-0.6 1-0.4l2.6 1.5c0.4 0.3 0.6 0.8 0.4 1.3-0.1 0.4-0.5 0.6-0.9 0.4z"/>
					<path id="&lt;Path&gt;" class="s40" d="m483.2 308.4l-8.6-5c-0.4-0.2-0.6-0.8-0.5-1.2 0.1-0.5 0.6-0.6 1-0.4l8.5 4.9c0.4 0.3 0.7 0.8 0.5 1.3-0.1 0.4-0.5 0.6-0.9 0.4z"/>
					<path id="&lt;Path&gt;" class="s40" d="m484.5 281.1l-6.4-3.7c-0.4-0.2-0.6-0.8-0.4-1.2 0.1-0.5 0.5-0.6 0.9-0.4l6.3 3.6c0.4 0.3 0.6 0.8 0.5 1.3-0.1 0.4-0.6 0.6-0.9 0.4z"/>
					<path id="&lt;Path&gt;" class="s40" d="m475.3 315.8l-7.4-4.2c-0.4-0.2-0.6-0.8-0.4-1.2 0.1-0.5 0.5-0.6 0.9-0.4l7.3 4.2c0.4 0.2 0.6 0.8 0.5 1.2-0.1 0.5-0.6 0.7-0.9 0.4z"/>
				</g>
			</g>
			<g id="&lt;Group&gt;">
				<path id="&lt;Compound Path&gt;" fill-rule="evenodd" class="s40" d="m591.8 382.6q-1.3 0-2.6-0.8l-68.7-39.6c-3-1.7-4.5-5.8-3.5-9.2l19.3-63.2c0.5-1.7 1.6-2.9 3-3.5 1.4-0.5 2.9-0.4 4.3 0.4l68.7 39.7c3 1.7 4.5 5.8 3.5 9.2l-19.3 63.2c-0.5 1.7-1.6 2.9-3 3.5q-0.8 0.3-1.7 0.3zm-2.3-1.3c1.2 0.7 2.6 0.8 3.8 0.4 1.2-0.5 2.2-1.6 2.6-3.1l19.3-63.2c1-3.1-0.5-6.9-3.2-8.5l-68.7-39.6c-1.2-0.7-2.6-0.9-3.8-0.4-1.2 0.5-2.2 1.6-2.6 3.1l-19.3 63.2c-1 3.1 0.5 6.9 3.2 8.4z"/>
				<g id="&lt;Group&gt;">
					<path id="&lt;Compound Path&gt;" fill-rule="evenodd" class="s40" d="m602.5 328.3q-1 0-1.9-0.6l-60.1-34.6c-2-1.2-3.1-4.1-2.4-6.5l2.4-8c0.4-1.2 1.1-2.1 2.2-2.5 0.9-0.3 2-0.2 3 0.3l60.1 34.7c2.1 1.2 3.2 4.1 2.5 6.4l-2.5 8.1c-0.4 1.2-1.1 2-2.1 2.4q-0.6 0.3-1.2 0.3zm-58.7-51.8q-0.4 0-0.9 0.2c-0.8 0.3-1.5 1.1-1.8 2.1l-2.4 8c-0.7 2.1 0.3 4.7 2.1 5.7l60.1 34.7c0.9 0.5 1.8 0.6 2.5 0.3 0.9-0.4 1.5-1.1 1.8-2.1l2.5-8c0.6-2.1-0.4-4.7-2.2-5.7l-60.1-34.7q-0.8-0.5-1.6-0.5z"/>
					<path id="&lt;Path&gt;" class="s40" d="m594.1 349.3l-11.3-6.5c-1.9-1.1-3-3.8-2.3-6l2.5-8.1c0.7-2.2 2.8-3.1 4.7-2l11.3 6.5c1.9 1.2 3 3.9 2.3 6.1l-2.5 8c-0.6 2.3-2.8 3.1-4.7 2z"/>
					<path id="&lt;Compound Path&gt;" fill-rule="evenodd" class="s40" d="m589.2 372q-1 0-1.9-0.6l-11.3-6.5c-2.1-1.2-3.2-4.1-2.4-6.4l2.4-8c0.4-1.2 1.1-2.1 2.1-2.5 1-0.4 2.1-0.3 3.1 0.3l11.3 6.5c2.1 1.2 3.2 4.1 2.4 6.4l-2.4 8.1c-0.4 1.2-1.1 2-2.1 2.4q-0.6 0.3-1.2 0.3zm-1.6-1.1c0.8 0.5 1.7 0.6 2.5 0.2 0.9-0.3 1.5-1 1.8-2l2.4-8.1c0.7-2-0.3-4.6-2.1-5.6l-11.3-6.5c-0.8-0.5-1.7-0.6-2.5-0.3-0.9 0.3-1.5 1-1.8 2l-2.4 8.1c-0.7 2.1 0.3 4.6 2.1 5.7z"/>
					<path id="&lt;Compound Path&gt;" fill-rule="evenodd" class="s40" d="m562.9 357.6q-1 0-1.9-0.5l-34-19.7c-2.1-1.2-3.2-4-2.5-6.4l9.4-30.6c0.3-1.2 1.1-2 2.1-2.4 1-0.4 2.1-0.3 3.1 0.3l34 19.6c2 1.2 3.1 4.1 2.4 6.4l-9.3 30.6c-0.4 1.2-1.1 2.1-2.1 2.5q-0.6 0.2-1.2 0.2zm-1.6-1.1c0.8 0.5 1.7 0.6 2.5 0.3 0.9-0.3 1.5-1.1 1.8-2.1l9.3-30.6c0.7-2-0.3-4.6-2.1-5.6l-34-19.7c-0.9-0.5-1.8-0.6-2.6-0.2-0.8 0.3-1.4 1-1.7 2l-9.4 30.6c-0.6 2.1 0.4 4.6 2.2 5.7z"/>
				</g>
			</g>
			<path id="&lt;Compound Path&gt;" fill-rule="evenodd" class="s40" d="m609.9 293.3q-0.6 0-1.1-0.3c-1.1-0.6-1.6-2-1.1-3 0.2-0.5 0.6-0.8 1.1-1 0.5-0.2 1.2-0.1 1.7 0.2 1.1 0.6 1.6 2 1.1 3-0.2 0.5-0.6 0.8-1.1 1q-0.3 0.1-0.6 0.1zm-0.5-3.7q-0.2 0-0.4 0-0.5 0.2-0.7 0.7c-0.4 0.7 0 1.7 0.8 2.1 0.4 0.2 0.8 0.3 1.2 0.2 0.3-0.1 0.6-0.4 0.7-0.7 0.4-0.7 0-1.7-0.8-2.1q-0.4-0.2-0.8-0.2z"/>
			<path id="&lt;Compound Path&gt;" fill-rule="evenodd" class="s40" d="m614.9 296.1q-0.6 0-1.1-0.3c-1.1-0.6-1.6-1.9-1.2-2.9 0.3-0.5 0.6-0.9 1.1-1 0.6-0.2 1.2-0.1 1.8 0.2 1 0.6 1.5 1.9 1.1 2.9-0.2 0.5-0.6 0.8-1.1 1q-0.3 0.1-0.6 0.1zm-0.6-3.7q-0.2 0-0.4 0.1c-0.3 0.1-0.5 0.3-0.7 0.6-0.3 0.7 0.1 1.7 0.9 2.2 0.4 0.2 0.8 0.2 1.2 0.1 0.3-0.1 0.6-0.3 0.7-0.6 0.3-0.8-0.1-1.7-0.9-2.2q-0.3-0.2-0.8-0.2z"/>
			<path id="&lt;Path&gt;" class="s40" d="m621.2 297.7c-0.4 0.9-1.4 1.2-2.3 0.7-1-0.6-1.4-1.7-1-2.6 0.4-0.9 1.4-1.2 2.4-0.6 0.9 0.5 1.3 1.6 0.9 2.5z"/>
			<g id="&lt;Group&gt;">
				<path id="&lt;Path&gt;" class="s40" d="m539.6 319.9l-3.7-2.1-4.7 15.4 3.7 2.1z"/>
				<path id="&lt;Path&gt;" class="s40" d="m546.8 327.9l-3.7-2.2-3.8 12.2 3.8 2.1z"/>
				<path id="&lt;Path&gt;" class="s40" d="m557.5 324.4l-3.8-2.1-6.2 20.3 3.8 2.2z"/>
				<path id="&lt;Path&gt;" class="s40" d="m568.1 321.1l-3.7-2.1-8.7 28.3 3.8 2.2z"/>
			</g>
		</g>
		<path id="&lt;Path&gt;" class="s31" d="m547.3 539.5l-147-84.7c-1-0.6-1.6-1.6-1.6-2.8 0-1.2 0.6-2.2 1.7-2.8l17.3-9.4 0.4 0.9-17.2 9.4c-0.8 0.4-1.2 1.1-1.2 1.9 0 0.8 0.4 1.6 1.1 2l147 84.7z"/>
		<g id="&lt;Group&gt;">
			<path id="&lt;Compound Path&gt;" fill-rule="evenodd" class="s31" d="m550.2 586.2c-1.8 0-3.6-0.4-5-1.2l-32.7-18.9c-1.5-0.9-2.2-2-2.2-3.2 0-1.2 0.7-2.3 2.2-3.1l56.8-32.9c2.8-1.6 7.2-1.6 10 0l32.7 18.9c1.4 0.8 2.2 2 2.2 3.2 0 1.2-0.8 2.3-2.2 3.1l-56.9 32.9c-1.3 0.8-3.1 1.2-4.9 1.2zm24.1-59.5c-1.6 0-3.2 0.4-4.5 1.1l-56.8 32.8c-1.1 0.7-1.7 1.5-1.7 2.3 0 0.9 0.6 1.7 1.7 2.3l32.7 18.9c2.5 1.4 6.5 1.4 8.9 0l56.9-32.8c1.1-0.7 1.7-1.5 1.7-2.3 0-0.9-0.6-1.7-1.7-2.3l-32.7-18.9c-1.3-0.7-2.9-1.1-4.5-1.1z"/>
			<g id="&lt;Group&gt;">
				<path id="&lt;Path&gt;" class="s59" d="m613.9 538.7v-15.7l-19.9 2.6-14.8-8.6c-2.6-1.5-6.9-1.5-9.5 0l-26.6 15.4-32.2 4.3v15.9q0 0 0 0v0.1c0.1 0.9 0.7 1.9 2 2.6l32.7 18.9c2.6 1.5 6.8 1.5 9.4 0l56.9-32.8c1.3-0.8 1.9-1.7 1.9-2.7h0.1z"/>
				<path id="&lt;Path&gt;" class="s60" d="m611.9 520.1l-32.7-18.9c-2.6-1.5-6.9-1.5-9.5 0l-56.8 32.8c-2.6 1.5-2.6 4 0 5.5l32.7 18.9c2.6 1.5 6.8 1.5 9.4 0l56.9-32.8c2.6-1.5 2.6-4 0-5.5z"/>
				<path id="&lt;Path&gt;" class="s40" d="m611.9 524.6l-56.9 32.8c-2.6 1.5-6.8 1.5-9.4 0l-32.7-18.9c-1.1-0.6-1.8-1.4-1.9-2.2-0.3 1.1 0.4 2.3 1.9 3.2l32.7 18.9c2.6 1.5 6.8 1.5 9.4 0l56.9-32.8c1.5-0.9 2.1-2.1 1.9-3.2-0.2 0.8-0.8 1.6-1.9 2.2z"/>
				<g id="&lt;Group&gt;">
					<path id="&lt;Path&gt;" class="s40" d="m574.2 553.8l-1.5 0.9v-1.8l1.5-0.9z"/>
					<path id="&lt;Path&gt;" class="s40" d="m577.5 551.9l-1.6 0.9v-1.8l1.6-0.9z"/>
					<path id="&lt;Path&gt;" class="s40" d="m580.7 550.1l-1.5 0.9v-1.8l1.5-0.9z"/>
					<path id="&lt;Path&gt;" class="s40" d="m578.1 555.2l-1.6 0.9v-1.8l1.6-0.9z"/>
					<path id="&lt;Path&gt;" class="s40" d="m580.9 553.6l-1.5 0.9v-1.8l1.5-0.9z"/>
					<path id="&lt;Path&gt;" class="s40" d="m591.1 544.1l-1.5 0.8v-1.7l1.5-0.9z"/>
					<path id="&lt;Path&gt;" class="s40" d="m600 538.9l-1.5 0.9v-1.8l1.5-0.9z"/>
					<path id="&lt;Path&gt;" class="s40" d="m584 548.2l-1.6 0.9v-1.8l1.6-0.9z"/>
				</g>
				<g id="&lt;Group&gt;">
					<g id="&lt;Group&gt;">
						<path id="&lt;Path&gt;" class="s43" d="m562 515.9l23.1 13.3-2.1 1.2-23.2-13.3z"/>
						<path id="&lt;Path&gt;" class="s40" d="m560.6 517.6l1.5-0.9 22.3 12.9 0.7-0.4-23.1-13.3-2.2 1.2z"/>
					</g>
					<g id="&lt;Group&gt;">
						<path id="&lt;Path&gt;" class="s43" d="m568.4 512.1l23.2 13.3-2.2 1.3-23.1-13.4z"/>
						<path id="&lt;Path&gt;" class="s40" d="m567.1 513.8l1.5-0.8 22.3 12.8 0.7-0.4-23.2-13.3-2.1 1.2z"/>
					</g>
					<g id="&lt;Group&gt;">
						<path id="&lt;Path&gt;" class="s43" d="m574.9 508.4l23.1 13.3-2.1 1.2-23.1-13.3z"/>
						<path id="&lt;Path&gt;" class="s40" d="m573.6 510.1l1.4-0.9 22.4 12.9 0.6-0.4-23.1-13.3-2.1 1.2z"/>
					</g>
				</g>
			</g>
			<path id="&lt;Compound Path&gt;" fill-rule="evenodd" class="s43" d="m549.9 551c-0.6 0-1.2-0.1-1.7-0.3l-22-12.8c-0.5-0.2-0.7-0.6-0.7-1.1 0-0.5 0.3-1 1-1.4l21.5-12.4c1.1-0.7 2.8-0.7 3.8-0.1l22 12.7c0.5 0.2 0.7 0.6 0.7 1.1 0 0.5-0.3 1-1 1.4l-21.5 12.4c-0.6 0.4-1.4 0.5-2.1 0.5zm0.2-28c-0.6 0-1.3 0.2-1.8 0.5l-21.5 12.4c-0.5 0.3-0.8 0.6-0.8 0.9 0 0.3 0.3 0.5 0.5 0.6l22 12.8c0.8 0.4 2.3 0.4 3.2-0.2l21.6-12.4c0.4-0.3 0.7-0.6 0.7-0.9 0-0.3-0.3-0.5-0.5-0.6l-22-12.7c-0.4-0.3-0.9-0.4-1.4-0.4z"/>
			<path id="&lt;Path&gt;" class="s43" d="m539.7 564.2l-18.2-10.5c-0.4-0.3-0.7-0.9-0.7-1.5v-1.4c0-0.6 0.3-0.8 0.7-0.6l18.2 10.5c0.5 0.3 0.8 1 0.8 1.5v1.4c0 0.6-0.3 0.8-0.8 0.6z"/>
		</g>
		<path id="&lt;Path&gt;" class="s31" d="m617.8 588.5c-2.5 0-5-0.6-7.2-1.9l-29.3-17 0.5-0.9 29.3 17.1c4.1 2.3 9.2 2.3 13.3 0l85.1-49.5 0.5 0.9-85.1 49.4c-2.2 1.3-4.7 1.9-7.1 1.9z"/>
	</g>
</svg>